<?xml version="1.0" encoding="UTF-8"?>
<svg id="Layer_1" data-name="Layer 1" xmlns="http://www.w3.org/2000/svg" viewBox="0 0 240.5 302.94">
  <defs>
    <style>
      .cls-1 {
        fill: #fff;
      }

      .cls-2 {
        fill: #F25D3F;
      }
    </style>
  </defs>
  <g>
    <rect class="cls-1" x="204.6" width="35.9" height="283.46" rx="5.67" ry="5.67"/>
    <rect class="cls-2" x="204.6" y="116.22" width="35.9" height="167.24" rx="5.67" ry="5.67"/>
    <g>
      <path class="cls-1" d="M213.67,127.17c.86,0,1.55.23,2.05.69s.76,1.08.76,1.87c0,.91-.29,1.63-.86,2.14s-1.39.77-2.44.77c-.96,0-1.71-.15-2.26-.46v-1.25c.32.18.68.32,1.09.42s.79.15,1.14.15c.62,0,1.09-.14,1.42-.42s.49-.68.49-1.22c0-1.02-.65-1.54-1.96-1.54-.18,0-.41.02-.68.06s-.51.08-.71.13l-.62-.36.33-4.18h4.45v1.22h-3.24l-.19,2.12c.14-.02.3-.05.5-.08s.44-.05.72-.05Z"/>
      <path class="cls-1" d="M223.41,127.61c0,1.69-.34,2.95-1.02,3.78s-1.7,1.25-3.07,1.25c-.52,0-.89-.03-1.12-.09v-1.15c.35.1.7.15,1.05.15.93,0,1.62-.25,2.08-.75s.71-1.29.75-2.36h-.07c-.23.35-.51.61-.83.76s-.71.23-1.15.23c-.76,0-1.35-.24-1.79-.71s-.65-1.12-.65-1.95c0-.89.25-1.61.75-2.14s1.19-.79,2.05-.79c.61,0,1.14.15,1.59.45s.8.73,1.05,1.29.37,1.24.37,2.03ZM220.42,124.99c-.48,0-.84.16-1.1.47s-.38.75-.38,1.31c0,.49.12.87.35,1.15s.59.42,1.08.42.86-.14,1.17-.42.47-.6.47-.97c0-.35-.07-.67-.2-.98s-.32-.54-.57-.72-.52-.26-.83-.26Z"/>
      <path class="cls-1" d="M228.21,126.51c0,.9-.16,1.57-.48,2.02s-.8.68-1.43.68c-.59,0-1.05-.23-1.38-.7s-.49-1.13-.49-2c0-1.79.62-2.68,1.87-2.68.61,0,1.08.23,1.42.69s.5,1.12.5,1.98ZM225.57,126.52c0,.58.06,1.02.17,1.3s.3.43.56.43c.52,0,.77-.58.77-1.73s-.26-1.73-.77-1.73c-.26,0-.44.14-.56.43s-.17.72-.17,1.3ZM232.05,123.96l-4.75,8.57h-1.14l4.75-8.57h1.14ZM233.79,129.95c0,.9-.16,1.57-.49,2.02s-.8.67-1.42.67-1.05-.23-1.38-.69-.49-1.13-.49-2c0-1.79.62-2.68,1.88-2.68.6,0,1.07.23,1.4.69s.5,1.12.5,1.99ZM231.15,129.95c0,.58.06,1.02.17,1.31s.3.43.56.43c.51,0,.77-.58.77-1.74s-.26-1.72-.77-1.72c-.26,0-.44.14-.56.42s-.17.71-.17,1.29Z"/>
    </g>
    <g>
      <path class="cls-1" d="M214.98,299.07h-5.81v-1.04l2.21-2.22c.65-.67,1.08-1.14,1.3-1.42s.37-.54.47-.79.15-.51.15-.79c0-.39-.12-.69-.35-.91s-.55-.33-.96-.33c-.33,0-.65.06-.95.18s-.66.34-1.06.66l-.74-.91c.48-.4.94-.69,1.39-.86s.93-.25,1.44-.25c.8,0,1.44.21,1.92.62s.72.98.72,1.68c0,.39-.07.75-.21,1.1s-.35.71-.64,1.08-.76.87-1.43,1.5l-1.49,1.44v.06h4.07v1.21Z"/>
      <path class="cls-1" d="M221.83,294.79c0,1.49-.24,2.59-.72,3.32s-1.21,1.08-2.19,1.08-1.68-.37-2.17-1.12-.74-1.84-.74-3.28.24-2.63.72-3.34,1.21-1.08,2.19-1.08,1.68.38,2.17,1.12.74,1.85.74,3.29ZM217.41,294.79c0,1.17.12,2,.36,2.5s.62.75,1.15.75.91-.25,1.16-.76.37-1.34.37-2.49-.12-1.98-.37-2.49-.63-.77-1.16-.77-.91.25-1.15.76-.36,1.34-.36,2.51Z"/>
      <path class="cls-1" d="M226.92,299.07h-1.38v-5.53c0-.66.02-1.18.05-1.57-.09.09-.2.2-.33.31s-.57.47-1.32,1.08l-.69-.87,2.52-1.98h1.15v8.57Z"/>
      <path class="cls-1" d="M229.75,295.42c0-3.35,1.37-5.03,4.1-5.03.43,0,.79.03,1.09.1v1.15c-.3-.09-.64-.13-1.03-.13-.92,0-1.61.25-2.07.74s-.71,1.28-.75,2.37h.07c.18-.32.44-.56.77-.74s.72-.26,1.17-.26c.78,0,1.38.24,1.82.71s.65,1.12.65,1.94c0,.9-.25,1.61-.75,2.13s-1.19.78-2.05.78c-.61,0-1.15-.15-1.6-.44s-.8-.72-1.05-1.29-.37-1.24-.37-2.04ZM232.74,298.05c.47,0,.84-.15,1.09-.46s.38-.74.38-1.31c0-.49-.12-.88-.36-1.16s-.6-.42-1.08-.42c-.3,0-.57.06-.82.19s-.45.3-.59.52-.22.45-.22.68c0,.55.15,1.01.45,1.39s.68.57,1.15.57Z"/>
    </g>
  </g>
  <g>
    <rect class="cls-1" x="153.45" width="35.9" height="283.46" rx="5.67" ry="5.67"/>
    <rect class="cls-2" x="153.45" y="90.71" width="35.9" height="192.76" rx="5.67" ry="5.67"/>
    <g>
      <path class="cls-1" d="M163.83,299.07h-5.81v-1.04l2.21-2.22c.65-.67,1.08-1.14,1.3-1.42s.37-.54.47-.79.15-.51.15-.79c0-.39-.12-.69-.35-.91s-.55-.33-.96-.33c-.33,0-.65.06-.95.18s-.66.34-1.06.66l-.74-.91c.48-.4.94-.69,1.39-.86s.93-.25,1.44-.25c.8,0,1.44.21,1.92.62s.72.98.72,1.68c0,.39-.07.75-.21,1.1s-.35.71-.64,1.08-.76.87-1.43,1.5l-1.49,1.44v.06h4.07v1.21Z"/>
      <path class="cls-1" d="M170.68,294.79c0,1.49-.24,2.59-.72,3.32s-1.21,1.08-2.19,1.08-1.68-.37-2.17-1.12-.74-1.84-.74-3.28.24-2.63.72-3.34,1.21-1.08,2.19-1.08,1.68.38,2.17,1.12.74,1.85.74,3.29ZM166.26,294.79c0,1.17.12,2,.36,2.5s.62.75,1.15.75.91-.25,1.16-.76.37-1.34.37-2.49-.12-1.98-.37-2.49-.63-.77-1.16-.77-.91.25-1.15.76-.36,1.34-.36,2.51Z"/>
      <path class="cls-1" d="M175.77,299.07h-1.38v-5.53c0-.66.02-1.18.05-1.57-.09.09-.2.2-.33.31s-.57.47-1.32,1.08l-.69-.87,2.52-1.98h1.15v8.57Z"/>
      <path class="cls-1" d="M181.47,290.39c.81,0,1.46.19,1.93.56s.71.87.71,1.5c0,.88-.53,1.58-1.58,2.1.67.34,1.15.69,1.43,1.06s.42.79.42,1.24c0,.71-.26,1.27-.78,1.7s-1.22.64-2.11.64-1.65-.2-2.16-.6-.77-.96-.77-1.69c0-.48.13-.91.4-1.29s.71-.72,1.32-1.02c-.52-.31-.9-.64-1.12-.99s-.33-.74-.33-1.17c0-.62.24-1.12.73-1.49s1.12-.55,1.91-.55ZM179.88,296.85c0,.41.14.72.43.95s.67.34,1.16.34.9-.12,1.17-.35.42-.55.42-.95c0-.32-.13-.61-.39-.87s-.65-.5-1.17-.73l-.17-.08c-.52.23-.89.48-1.11.75s-.34.58-.34.93ZM181.46,291.45c-.39,0-.71.1-.94.29s-.36.46-.36.79c0,.2.04.38.13.54s.21.31.38.44.44.29.83.47c.47-.21.8-.42.99-.65s.29-.5.29-.8c0-.33-.12-.59-.36-.79s-.56-.29-.96-.29Z"/>
    </g>
    <g>
      <path class="cls-1" d="M159.64,103.66c0-3.35,1.37-5.03,4.1-5.03.43,0,.79.03,1.09.1v1.15c-.3-.09-.64-.13-1.03-.13-.92,0-1.61.25-2.07.74s-.71,1.28-.75,2.37h.07c.18-.32.44-.56.77-.74s.72-.26,1.17-.26c.78,0,1.38.24,1.82.71s.65,1.12.65,1.94c0,.9-.25,1.61-.75,2.13s-1.19.78-2.05.78c-.61,0-1.15-.15-1.6-.44s-.8-.72-1.05-1.29-.37-1.24-.37-2.04ZM162.63,106.29c.47,0,.84-.15,1.09-.46s.38-.74.38-1.31c0-.49-.12-.88-.36-1.16s-.6-.42-1.08-.42c-.3,0-.57.06-.82.19s-.45.3-.59.52-.22.45-.22.68c0,.55.15,1.01.45,1.39s.68.57,1.15.57Z"/>
      <path class="cls-1" d="M169.36,98.63c.81,0,1.46.19,1.93.56s.71.87.71,1.5c0,.88-.53,1.58-1.58,2.1.67.34,1.15.69,1.43,1.06s.42.79.42,1.24c0,.71-.26,1.27-.78,1.7s-1.22.64-2.11.64-1.65-.2-2.16-.6-.77-.96-.77-1.69c0-.48.13-.91.4-1.29s.71-.72,1.32-1.02c-.52-.31-.9-.64-1.12-.99s-.33-.74-.33-1.17c0-.62.24-1.12.73-1.49s1.12-.55,1.91-.55ZM167.77,105.09c0,.41.14.72.43.95s.67.34,1.16.34.9-.12,1.17-.35.42-.55.42-.95c0-.32-.13-.61-.39-.87s-.65-.5-1.17-.73l-.17-.08c-.52.23-.89.48-1.11.75s-.34.58-.34.93ZM169.35,99.7c-.39,0-.71.1-.94.29s-.36.46-.36.79c0,.2.04.38.13.54s.21.31.38.44.44.29.83.47c.47-.21.8-.42.99-.65s.29-.5.29-.8c0-.33-.12-.59-.36-.79s-.56-.29-.96-.29Z"/>
      <path class="cls-1" d="M177.06,101.3c0,.9-.16,1.57-.48,2.02s-.8.68-1.43.68c-.59,0-1.05-.23-1.38-.7s-.49-1.13-.49-2c0-1.79.62-2.68,1.87-2.68.61,0,1.08.23,1.42.69s.5,1.12.5,1.98ZM174.42,101.31c0,.58.06,1.02.17,1.3s.3.43.56.43c.52,0,.77-.58.77-1.73s-.26-1.73-.77-1.73c-.26,0-.44.14-.56.43s-.17.72-.17,1.3ZM180.9,98.75l-4.75,8.57h-1.14l4.75-8.57h1.14ZM182.64,104.73c0,.9-.16,1.57-.49,2.02s-.8.67-1.42.67-1.05-.23-1.38-.69-.49-1.13-.49-2c0-1.79.62-2.68,1.88-2.68.6,0,1.07.23,1.4.69s.5,1.12.5,1.99ZM180,104.73c0,.58.06,1.02.17,1.31s.3.43.56.43c.51,0,.77-.58.77-1.74s-.26-1.72-.77-1.72c-.26,0-.44.14-.56.42s-.17.71-.17,1.29Z"/>
    </g>
  </g>
  <g>
    <rect class="cls-1" x="102.3" width="35.9" height="283.46" rx="5.67" ry="5.67"/>
    <rect class="cls-2" x="102.3" y="65.61" width="35.9" height="218.27" rx="5.67" ry="5.67"/>
    <g>
      <path class="cls-1" d="M112.68,299.07h-5.81v-1.04l2.21-2.22c.65-.67,1.08-1.14,1.3-1.42s.37-.54.47-.79.15-.51.15-.79c0-.39-.12-.69-.35-.91s-.55-.33-.96-.33c-.33,0-.65.06-.95.18s-.66.34-1.06.66l-.74-.91c.48-.4.94-.69,1.39-.86s.93-.25,1.44-.25c.8,0,1.44.21,1.92.62s.72.98.72,1.68c0,.39-.07.75-.21,1.1s-.35.71-.64,1.08-.76.87-1.43,1.5l-1.49,1.44v.06h4.07v1.21Z"/>
      <path class="cls-1" d="M119.53,294.79c0,1.49-.24,2.59-.72,3.32s-1.21,1.08-2.19,1.08-1.68-.37-2.17-1.12-.74-1.84-.74-3.28.24-2.63.72-3.34,1.21-1.08,2.19-1.08,1.68.38,2.17,1.12.74,1.85.74,3.29ZM115.11,294.79c0,1.17.12,2,.36,2.5s.62.75,1.15.75.91-.25,1.16-.76.37-1.34.37-2.49-.12-1.98-.37-2.49-.63-.77-1.16-.77-.91.25-1.15.76-.36,1.34-.36,2.51Z"/>
      <path class="cls-1" d="M126.38,299.07h-5.81v-1.04l2.21-2.22c.65-.67,1.08-1.14,1.3-1.42s.37-.54.47-.79.15-.51.15-.79c0-.39-.12-.69-.35-.91s-.55-.33-.96-.33c-.33,0-.65.06-.95.18s-.66.34-1.06.66l-.74-.91c.48-.4.94-.69,1.39-.86s.93-.25,1.44-.25c.8,0,1.44.21,1.92.62s.72.98.72,1.68c0,.39-.07.75-.21,1.1s-.35.71-.64,1.08-.76.87-1.43,1.5l-1.49,1.44v.06h4.07v1.21Z"/>
      <path class="cls-1" d="M133.23,294.79c0,1.49-.24,2.59-.72,3.32s-1.21,1.08-2.19,1.08-1.68-.37-2.17-1.12-.74-1.84-.74-3.28.24-2.63.72-3.34,1.21-1.08,2.19-1.08,1.68.38,2.17,1.12.74,1.85.74,3.29ZM128.81,294.79c0,1.17.12,2,.36,2.5s.62.75,1.15.75.91-.25,1.16-.76.37-1.34.37-2.49-.12-1.98-.37-2.49-.63-.77-1.16-.77-.91.25-1.15.76-.36,1.34-.36,2.51Z"/>
    </g>
    <g>
      <path class="cls-1" d="M109.44,83.13l3.39-7.34h-4.45v-1.21h5.92v.96l-3.37,7.59h-1.49Z"/>
      <path class="cls-1" d="M116.29,83.13l3.39-7.34h-4.45v-1.21h5.92v.96l-3.37,7.59h-1.49Z"/>
      <path class="cls-1" d="M125.91,77.12c0,.9-.16,1.57-.48,2.02s-.8.68-1.43.68c-.59,0-1.05-.23-1.38-.7s-.49-1.13-.49-2c0-1.79.62-2.68,1.87-2.68.61,0,1.08.23,1.42.69s.5,1.12.5,1.98ZM123.27,77.13c0,.58.06,1.02.17,1.3s.3.43.56.43c.52,0,.77-.58.77-1.73s-.26-1.73-.77-1.73c-.26,0-.44.14-.56.43s-.17.72-.17,1.3ZM129.74,74.57l-4.75,8.57h-1.14l4.75-8.57h1.14ZM131.49,80.55c0,.9-.16,1.57-.49,2.02s-.8.67-1.42.67-1.05-.23-1.38-.69-.49-1.13-.49-2c0-1.79.62-2.68,1.88-2.68.6,0,1.07.23,1.4.69s.5,1.12.5,1.99ZM128.85,80.55c0,.58.06,1.02.17,1.31s.3.43.56.43c.51,0,.77-.58.77-1.74s-.26-1.72-.77-1.72c-.26,0-.44.14-.56.42s-.17.71-.17,1.29Z"/>
    </g>
  </g>
  <g>
    <rect class="cls-1" x="51.15" width="35.9" height="283.46" rx="5.67" ry="5.67"/>
    <rect class="cls-2" x="51.15" y="68.03" width="35.9" height="215.43" rx="5.67" ry="5.67"/>
    <g>
      <path class="cls-1" d="M61.53,299.07h-5.81v-1.04l2.21-2.22c.65-.67,1.08-1.14,1.3-1.42s.37-.54.47-.79.15-.51.15-.79c0-.39-.12-.69-.35-.91s-.55-.33-.96-.33c-.33,0-.65.06-.95.18s-.66.34-1.06.66l-.74-.91c.48-.4.94-.69,1.39-.86s.93-.25,1.44-.25c.8,0,1.44.21,1.92.62s.72.98.72,1.68c0,.39-.07.75-.21,1.1s-.35.71-.64,1.08-.76.87-1.43,1.5l-1.49,1.44v.06h4.07v1.21Z"/>
      <path class="cls-1" d="M68.38,294.79c0,1.49-.24,2.59-.72,3.32s-1.21,1.08-2.19,1.08-1.68-.37-2.17-1.12-.74-1.84-.74-3.28.24-2.63.72-3.34,1.21-1.08,2.19-1.08,1.68.38,2.17,1.12.74,1.85.74,3.29ZM63.96,294.79c0,1.17.12,2,.36,2.5s.62.75,1.15.75.91-.25,1.16-.76.37-1.34.37-2.49-.12-1.98-.37-2.49-.63-.77-1.16-.77-.91.25-1.15.76-.36,1.34-.36,2.51Z"/>
      <path class="cls-1" d="M75.23,299.07h-5.81v-1.04l2.21-2.22c.65-.67,1.08-1.14,1.3-1.42s.37-.54.47-.79.15-.51.15-.79c0-.39-.12-.69-.35-.91s-.55-.33-.96-.33c-.33,0-.65.06-.95.18s-.66.34-1.06.66l-.74-.91c.48-.4.94-.69,1.39-.86s.93-.25,1.44-.25c.8,0,1.44.21,1.92.62s.72.98.72,1.68c0,.39-.07.75-.21,1.1s-.35.71-.64,1.08-.76.87-1.43,1.5l-1.49,1.44v.06h4.07v1.21Z"/>
      <path class="cls-1" d="M82.08,299.07h-5.81v-1.04l2.21-2.22c.65-.67,1.08-1.14,1.3-1.42s.37-.54.47-.79.15-.51.15-.79c0-.39-.12-.69-.35-.91s-.55-.33-.96-.33c-.33,0-.65.06-.95.18s-.66.34-1.06.66l-.74-.91c.48-.4.94-.69,1.39-.86s.93-.25,1.44-.25c.8,0,1.44.21,1.92.62s.72.98.72,1.68c0,.39-.07.75-.21,1.1s-.35.71-.64,1.08-.76.87-1.43,1.5l-1.49,1.44v.06h4.07v1.21Z"/>
    </g>
    <g>
      <path class="cls-1" d="M58.29,84.54l3.39-7.34h-4.45v-1.21h5.92v.96l-3.37,7.59h-1.49Z"/>
      <path class="cls-1" d="M64.19,80.89c0-3.35,1.37-5.03,4.1-5.03.43,0,.79.03,1.09.1v1.15c-.3-.09-.64-.13-1.03-.13-.92,0-1.61.25-2.07.74s-.71,1.28-.75,2.37h.07c.18-.32.44-.56.77-.74s.72-.26,1.17-.26c.78,0,1.38.24,1.82.71s.65,1.12.65,1.94c0,.9-.25,1.61-.75,2.13s-1.19.78-2.05.78c-.61,0-1.15-.15-1.6-.44s-.8-.72-1.05-1.29-.37-1.24-.37-2.04ZM67.17,83.52c.47,0,.84-.15,1.09-.46s.38-.74.38-1.31c0-.49-.12-.88-.36-1.16-.24-.28-.6-.42-1.08-.42-.3,0-.57.06-.82.19s-.45.3-.59.52c-.14.22-.22.45-.22.68,0,.55.15,1.01.45,1.39s.68.57,1.15.57Z"/>
      <path class="cls-1" d="M74.76,78.53c0,.9-.16,1.57-.48,2.02-.32.45-.8.68-1.43.68-.59,0-1.05-.23-1.38-.7-.33-.47-.49-1.13-.49-2,0-1.79.62-2.68,1.87-2.68.61,0,1.08.23,1.42.69s.5,1.12.5,1.98ZM72.12,78.54c0,.58.06,1.02.17,1.3s.3.43.56.43c.52,0,.77-.58.77-1.73s-.26-1.73-.77-1.73c-.26,0-.44.14-.56.43s-.17.72-.17,1.3ZM78.59,75.97l-4.75,8.57h-1.14l4.75-8.57h1.14ZM80.33,81.96c0,.9-.16,1.57-.49,2.02s-.8.67-1.42.67-1.05-.23-1.38-.69-.49-1.13-.49-2c0-1.79.62-2.68,1.88-2.68.6,0,1.07.23,1.4.69s.5,1.12.5,1.99ZM77.7,81.96c0,.58.06,1.02.17,1.31s.3.43.56.43c.51,0,.77-.58.77-1.74s-.26-1.72-.77-1.72c-.26,0-.44.14-.56.42-.12.28-.17.71-.17,1.3Z"/>
    </g>
  </g>
  <g>
    <rect class="cls-1" width="35.9" height="283.46" rx="5.67" ry="5.67"/>
    <rect class="cls-2" y="53.86" width="35.9" height="229.61" rx="5.67" ry="5.67"/>
    <g>
      <path class="cls-1" d="M10.38,299.07h-5.81v-1.04l2.21-2.22c.65-.67,1.08-1.14,1.3-1.42s.37-.54.47-.79.15-.51.15-.79c0-.39-.12-.69-.35-.91s-.55-.33-.96-.33c-.33,0-.65.06-.95.18s-.66.34-1.06.66l-.74-.91c.48-.4.94-.69,1.39-.86s.93-.25,1.44-.25c.8,0,1.44.21,1.92.62s.72.98.72,1.68c0,.39-.07.75-.21,1.1s-.35.71-.64,1.08-.76.87-1.43,1.5l-1.49,1.44v.06h4.07v1.21Z"/>
      <path class="cls-1" d="M17.23,294.79c0,1.49-.24,2.59-.72,3.32s-1.21,1.08-2.19,1.08-1.68-.37-2.17-1.12-.74-1.84-.74-3.28.24-2.63.72-3.34,1.21-1.08,2.19-1.08,1.68.38,2.17,1.12.74,1.85.74,3.29ZM12.8,294.79c0,1.17.12,2,.36,2.5s.62.75,1.15.75.91-.25,1.16-.76.37-1.34.37-2.49-.12-1.98-.37-2.49-.63-.77-1.16-.77-.91.25-1.15.76-.36,1.34-.36,2.51Z"/>
      <path class="cls-1" d="M24.08,299.07h-5.81v-1.04l2.21-2.22c.65-.67,1.08-1.14,1.3-1.42s.37-.54.47-.79.15-.51.15-.79c0-.39-.12-.69-.35-.91s-.55-.33-.96-.33c-.33,0-.65.06-.95.18s-.66.34-1.06.66l-.74-.91c.48-.4.94-.69,1.39-.86s.93-.25,1.44-.25c.8,0,1.44.21,1.92.62s.72.98.72,1.68c0,.39-.07.75-.21,1.1s-.35.71-.64,1.08-.76.87-1.43,1.5l-1.49,1.44v.06h4.07v1.21Z"/>
      <path class="cls-1" d="M31.23,297.2h-1.15v1.87h-1.34v-1.87h-3.91v-1.06l3.91-5.66h1.34v5.58h1.15v1.14ZM28.74,296.06v-2.15c0-.77.02-1.39.06-1.88h-.05c-.11.26-.28.57-.52.94l-2.13,3.09h2.63Z"/>
    </g>
    <g>
      <path class="cls-1" d="M9.06,61.59c.81,0,1.46.19,1.93.56s.71.87.71,1.5c0,.88-.53,1.58-1.58,2.1.67.34,1.15.69,1.43,1.06s.42.79.42,1.24c0,.71-.26,1.27-.78,1.7s-1.22.64-2.11.64-1.65-.2-2.16-.6-.77-.96-.77-1.69c0-.48.13-.91.4-1.29s.71-.72,1.32-1.02c-.52-.31-.9-.64-1.12-.99s-.33-.74-.33-1.17c0-.62.24-1.12.73-1.49s1.12-.55,1.91-.55ZM7.47,68.05c0,.41.14.72.43.95s.67.34,1.16.34.9-.12,1.17-.35.42-.55.42-.95c0-.32-.13-.61-.39-.87s-.65-.5-1.17-.73l-.17-.08c-.52.23-.89.48-1.11.75s-.34.58-.34.93ZM9.04,62.65c-.39,0-.71.1-.94.29s-.36.46-.36.79c0,.2.04.38.13.54s.21.31.38.44.44.29.83.47c.47-.21.8-.42.99-.65s.29-.5.29-.8c0-.33-.12-.59-.36-.79s-.56-.29-.96-.29Z"/>
      <path class="cls-1" d="M17.05,70.27h-1.38v-5.53c0-.66.02-1.18.05-1.57-.09.09-.2.2-.33.31s-.57.47-1.32,1.08l-.69-.87,2.52-1.98h1.15v8.57Z"/>
      <path class="cls-1" d="M23.6,64.26c0,.9-.16,1.57-.48,2.02s-.8.68-1.43.68c-.59,0-1.05-.23-1.38-.7s-.49-1.13-.49-2c0-1.79.62-2.68,1.87-2.68.61,0,1.08.23,1.42.69s.5,1.12.5,1.98ZM20.97,64.27c0,.58.06,1.02.17,1.3s.3.43.56.43c.52,0,.77-.58.77-1.73s-.26-1.73-.77-1.73c-.26,0-.44.14-.56.43s-.17.72-.17,1.3ZM27.44,61.7l-4.75,8.57h-1.14l4.75-8.57h1.14ZM29.18,67.69c0,.9-.16,1.57-.49,2.02s-.8.67-1.42.67-1.05-.23-1.38-.69-.49-1.13-.49-2c0-1.79.62-2.68,1.88-2.68.6,0,1.07.23,1.4.69s.5,1.12.5,1.99ZM26.55,67.69c0,.58.06,1.02.17,1.31s.3.43.56.43c.51,0,.77-.58.77-1.74s-.26-1.72-.77-1.72c-.26,0-.44.14-.56.42s-.17.71-.17,1.29Z"/>
    </g>
  </g>
</svg>