<?xml version="1.0" encoding="UTF-8"?><svg id="Layer_10" xmlns="http://www.w3.org/2000/svg" width="1444.84" height="1341" viewBox="0 0 1444.84 1341"><defs><style>.cls-1{fill:#b56020;}</style></defs><path class="cls-1" d="M1440.91,0L56.71,1.96S17.45,1.96,7.63,35.34s-9.82,66.76-1.96,86.39c7.85,19.63,21.6,49.08,47.12,60.87,25.52,11.78,27.49,13.74,49.08,17.67,21.6,3.93,170.82,0,180.63,1.96,9.82,1.96,33.38,5.89,35.34,31.41,1.96,25.52-17.67,27.49-33.38,31.41-15.71,3.93-161-5.89-190.45,1.96-29.45,7.85-56.94,25.52-66.76,45.16-9.82,19.63-15.71,54.98-15.71,86.39s5.89,56.94,21.6,76.57c15.71,19.63,39.27,25.52,72.65,27.49,33.38,1.96,153.14,1.96,174.74,3.93,21.6,1.96,39.27,9.82,39.27,29.45s-17.67,27.49-35.34,29.45c-17.67,1.96-147.25,3.93-166.89,5.89-19.63,1.96-62.83,13.74-76.57,25.52s-33.38,41.23-35.34,78.54c-1.96,37.3,7.85,66.76,17.67,84.43,9.82,17.67,31.41,39.27,53.01,47.12,21.6,7.85,176.71,3.93,194.38,3.93s35.34,0,47.12,13.74c11.78,13.74,1.96,33.38,1.96,33.38,0,0-5.89,11.78-27.49,17.67s-147.25-5.89-186.52,1.96c-39.27,7.85-53.01,19.63-70.68,37.3-17.67,17.67-27.49,39.27-31.41,64.79-3.93,25.52-5.89,53.01,11.78,94.24,17.67,41.23,68.72,43.19,90.32,45.16,21.6,1.96,149.22-3.93,172.78-1.96,23.56,1.96,39.27,7.85,41.23,31.41,1.96,23.56-15.71,31.41-37.3,35.34s-141.36-3.93-180.63,1.96c-39.27,5.89-56.94,15.71-68.72,33.38-11.78,17.67-17.67,39.27-15.71,60.87,1.96,21.6,3.93,41.23,17.67,51.05,13.74,9.82,29.45,9.82,29.45,9.82l1380.27-1.96L1440.91,0Z"/></svg>