<?xml version="1.0" encoding="UTF-8"?><svg id="Layer_7" xmlns="http://www.w3.org/2000/svg" width="702" height="651" viewBox="0 0 702 651"><defs><style>.cls-1{fill:#2f44c3;}</style></defs><path class="cls-1" d="M693.22,464.91c-2-9-8-27-8-27,0,0-7-24-12-32s-11-15-16-20-12-10-23-15-17-6-27-7c-6.04-.6-59,2-72-1s-22-4-33-18c-6.19-7.88-7-14-7.14-20.07s-.55-12.43,5.14-22.93c13-24,35-25,38-25s68,1,80,0,26-8,38-16,17-21,22-34,12-77,12-80v-25l-1-37s-3-35-7-46-13-20-23-28-29-8-29-8H70.22s-19,0-29,8-19,17-23,28-7,46-7,46l-1,37v25c0,3,7,67,12,80s10,26,22,34,26,15,38,16,77,0,80,0,25,1,38,25c5.69,10.5,5.28,16.87,5.14,22.93s-.95,12.19-7.14,20.07c-11,14-20,15-33,18s-65.96.4-72,1c-10,1-16,2-27,7s-18,10-23,15-11,12-16,20-12,32-12,32c0,0-6,18-8,27s-2,23-2,33v45c0,10,3,35,5,42s11,33,18,41,12,15,24,19,71,3,71,3l227-.95,227,.95s59,1,71-3,17-11,24-19,16-34,18-41,5-32,5-42v-45c0-10,0-24-2-33Z"/></svg>