<?xml version="1.0" encoding="UTF-8"?><svg id="Layer_27" xmlns="http://www.w3.org/2000/svg" width="348" height="645.11" viewBox="0 0 348 645.11"><defs><style>.cls-1{fill:#e0674a;}</style></defs><path class="cls-1" d="M348,0H65S46,0,36,8s-19,17-23,28-7,46-7,46l-1,37v25c0,3,7,67,12,80s10,26,22,34,26,15,38,16,77,0,80,0,25,1,38,25c5.69,10.5,5.28,16.87,5.14,22.93s-.95,12.19-7.14,20.07c-11,14-20,15-33,18s-65.96.4-72,1c-10,1-16,2-27,7s-18,10-23,15-11,12-16,20-12,32-12,32c0,0-6,18-8,27s-2,23-2,33v45c0,10,3,35,5,42s11,33,18,41,12,15,24,19,71,3,71,3l227-.95h3S348,0,348,0Z"/></svg>