<?xml version="1.0" encoding="UTF-8"?><svg id="Layer_7" xmlns="http://www.w3.org/2000/svg" width="874.92" height="818" viewBox="0 0 874.92 818"><defs><style>.cls-1{fill:#2f44c3;}</style></defs><path class="cls-1" d="M872.38,585.82c-2.54-11.41-10.14-34.24-10.14-34.24,0,0-8.88-30.43-15.22-40.58-6.34-10.14-13.95-19.02-20.29-25.36-6.34-6.34-15.22-12.68-29.16-19.02-13.95-6.34-21.56-7.61-34.24-8.88-7.66-.77-74.81,2.54-91.3-1.27s-27.9-5.07-41.84-22.82c-7.85-9.99-8.88-17.75-9.05-25.44-.18-7.69-.7-15.77,6.52-29.08,16.48-30.43,44.38-31.7,48.18-31.7s86.22,1.27,101.44,0c15.22-1.27,32.97-10.14,48.18-20.29s21.56-26.63,27.9-43.11c6.34-16.48,15.22-97.64,15.22-101.44v-31.7l-1.27-46.92s-3.8-44.38-8.88-58.33-16.48-25.36-29.16-35.5c-12.68-10.14-36.77-10.14-36.77-10.14H82.42s-24.09,0-36.77,10.14c-12.68,10.14-24.09,21.56-29.16,35.5s-8.88,58.33-8.88,58.33l-1.27,46.92v31.7c0,3.8,8.88,84.96,15.22,101.44,6.34,16.48,12.68,32.97,27.9,43.11s32.97,19.02,48.18,20.29c15.22,1.27,97.64,0,101.44,0s31.7,1.27,48.18,31.7c7.21,13.31,6.69,21.39,6.52,29.08-.18,7.69-1.21,15.46-9.05,25.44-13.95,17.75-25.36,19.02-41.84,22.82s-83.63.5-91.3,1.27c-12.68,1.27-20.29,2.54-34.24,8.88-13.95,6.34-22.82,12.68-29.16,19.02-6.34,6.34-13.95,15.22-20.29,25.36-6.34,10.14-15.22,40.58-15.22,40.58,0,0-7.61,22.82-10.14,34.24-2.54,11.41-2.54,29.16-2.54,41.84v57.06c0,12.68,3.8,44.38,6.34,53.26s13.95,41.84,22.82,51.99c8.88,10.14,15.22,19.02,30.43,24.09,15.22,5.07,90.03,3.8,90.03,3.8l287.84-1.2,287.84,1.2s74.81,1.27,90.03-3.8c15.22-5.07,21.56-13.95,30.43-24.09,8.88-10.14,20.29-43.11,22.82-51.99s6.34-40.58,6.34-53.26v-57.06c0-12.68,0-30.43-2.54-41.84Z"/></svg>