<?xml version="1.0" encoding="UTF-8"?><svg id="Layer_10" xmlns="http://www.w3.org/2000/svg" width="881.34" height="818" viewBox="0 0 881.34 818"><defs><style>.cls-1{fill:#b56020;}</style></defs><path class="cls-1" d="M878.94,0L34.59,1.2S10.64,1.2,4.65,21.56s-5.99,40.72-1.2,52.7c4.79,11.98,13.17,29.94,28.74,37.13,15.57,7.19,16.77,8.38,29.94,10.78,13.17,2.4,104.2,0,110.18,1.2s20.36,3.59,21.56,19.16c1.2,15.57-10.78,16.77-20.36,19.16-9.58,2.4-98.21-3.59-116.17,1.2-17.96,4.79-34.73,15.57-40.72,27.55-5.99,11.98-9.58,33.53-9.58,52.7s3.59,34.73,13.17,46.71,23.95,15.57,44.31,16.77c20.36,1.2,93.42,1.2,106.59,2.4,13.17,1.2,23.95,5.99,23.95,17.96s-10.78,16.77-21.56,17.96c-10.78,1.2-89.82,2.4-101.8,3.59-11.98,1.2-38.33,8.38-46.71,15.57s-20.36,25.15-21.56,47.91c-1.2,22.76,4.79,40.72,10.78,51.5,5.99,10.78,19.16,23.95,32.34,28.74,13.17,4.79,107.79,2.4,118.57,2.4s21.56,0,28.74,8.38,1.2,20.36,1.2,20.36c0,0-3.59,7.19-16.77,10.78s-89.82-3.59-113.78,1.2c-23.95,4.79-32.34,11.98-43.12,22.76s-16.77,23.95-19.16,39.52c-2.4,15.57-3.59,32.34,7.19,57.49,10.78,25.15,41.92,26.35,55.09,27.55,13.17,1.2,91.02-2.4,105.39-1.2s23.95,4.79,25.15,19.16c1.2,14.37-9.58,19.16-22.76,21.56-13.17,2.4-86.23-2.4-110.18,1.2s-34.73,9.58-41.92,20.36c-7.19,10.78-10.78,23.95-9.58,37.13,1.2,13.17,2.4,25.15,10.78,31.14,8.38,5.99,17.96,5.99,17.96,5.99l841.95-1.2L878.94,0Z"/></svg>