<?xml version="1.0" encoding="UTF-8"?><svg id="Layer_37" xmlns="http://www.w3.org/2000/svg" width="1304.54" height="1219.67" viewBox="0 0 1304.54 1219.67"><defs><style>.cls-1{fill:#2f44c3;}</style></defs><path class="cls-1" d="M1300.76,873.48c-3.78-17.02-15.13-51.05-15.13-51.05,0,0-13.23-45.38-22.69-60.5-9.45-15.13-20.8-28.36-30.25-37.81-9.45-9.45-22.69-18.91-43.48-28.36-20.8-9.45-32.14-11.34-51.05-13.23-11.42-1.14-111.55,3.78-136.13-1.89-24.58-5.67-41.59-7.56-62.39-34.03-11.7-14.89-13.23-26.47-13.5-37.94-.26-11.47-1.04-23.51,9.71-43.36,24.58-45.38,66.17-47.27,71.84-47.27s128.56,1.89,151.25,0c22.69-1.89,49.16-15.13,71.84-30.25,22.69-15.13,32.14-39.7,41.59-64.28,9.45-24.58,22.69-145.58,22.69-151.25v-47.27l-1.89-69.95s-5.67-66.17-13.23-86.97c-7.56-20.8-24.58-37.81-43.48-52.94-18.91-15.13-54.83-15.13-54.83-15.13H122.89s-35.92,0-54.83,15.13c-18.91,15.13-35.92,32.14-43.48,52.94-7.56,20.8-13.23,86.97-13.23,86.97l-1.89,69.95v47.27c0,5.67,13.23,126.67,22.69,151.25,9.45,24.58,18.91,49.16,41.59,64.28,22.69,15.13,49.16,28.36,71.84,30.25,22.69,1.89,145.58,0,151.25,0s47.27,1.89,71.84,47.27c10.75,19.85,9.98,31.89,9.71,43.36-.26,11.47-1.8,23.05-13.5,37.94-20.8,26.47-37.81,28.36-62.39,34.03-24.58,5.67-124.7.75-136.13,1.89-18.91,1.89-30.25,3.78-51.05,13.23s-34.03,18.91-43.48,28.36c-9.45,9.45-20.8,22.69-30.25,37.81-9.45,15.13-22.69,60.5-22.69,60.5,0,0-11.34,34.03-15.13,51.05-3.78,17.02-3.78,43.48-3.78,62.39v85.08c0,18.91,5.67,66.17,9.45,79.41s20.8,62.39,34.03,77.52c13.23,15.13,22.69,28.36,45.38,35.92,22.69,7.56,134.24,5.67,134.24,5.67l429.18-1.8,429.18,1.8s111.55,1.89,134.24-5.67c22.69-7.56,32.14-20.8,45.38-35.92,13.23-15.13,30.25-64.28,34.03-77.52s9.45-60.5,9.45-79.41v-85.08c0-18.91,0-45.38-3.78-62.39Z"/></svg>