<?xml version="1.0" encoding="UTF-8"?><svg id="Layer_10" xmlns="http://www.w3.org/2000/svg" width="739" height="683" viewBox="0 0 739 683"><defs><style>.cls-1{fill:#b56020;}</style></defs><path class="cls-1" d="M738,0L33,1S13,1,8,18s-5,34-1,44,11,25,24,31,14,7,25,9,87,0,92,1,17,3,18,16-9,14-17,16-82-3-97,1-29,13-34,23-8,28-8,44,3,29,11,39,20,13,37,14,78,1,89,2,20,5,20,15-9,14-18,15-75,2-85,3-32,7-39,13-17,21-18,40,4,34,9,43,16,20,27,24,90,2,99,2,18,0,24,7,1,17,1,17c0,0-3,6-14,9s-75-3-95,1-27,10-36,19-14,20-16,33-3,27,6,48,35,22,46,23,76-2,88-1,20,4,21,16-8,16-19,18-72-2-92,1-29,8-35,17-9,20-8,31,2,21,9,26,15,5,15,5l703-1L738,0Z"/></svg>