<?xml version="1.0" encoding="UTF-8"?><svg id="Layer_30" xmlns="http://www.w3.org/2000/svg" width="660" height="814" viewBox="0 0 660 814"><defs><style>.cls-1{fill:#df6a4c;}.cls-2{fill:#d8a830;}.cls-3{fill:#fd8;}.cls-4{fill:#754711;}.cls-5{fill:#aa7c21;}.cls-6{fill:#de953e;}.cls-7{fill:#ad7123;}.cls-8{fill:#010001;}.cls-9{fill:#3e701e;}.cls-10{fill:#080100;}.cls-11{fill:#5d1c0e;}.cls-12{fill:#fef7e5;}.cls-13{fill:#eaba44;}.cls-14{fill:#75bb50;}.cls-15{fill:#cc8232;}.cls-16{fill:#b36035;}.cls-17{fill:#f7ca45;}.cls-18{fill:#eaa239;}.cls-19{fill:#cc9b2e;}.cls-20{fill:#ec9482;}.cls-21{fill:#64a53d;}.cls-22{fill:#b76c4b;}.cls-23{fill:#4c140b;}</style></defs><path class="cls-11" d="M511,791c-3,5-359,5-361,0s0-24,0-24h361s3,19,0,24Z"/><path class="cls-23" d="M511,767h-9.46c.7,5.85,1.59,16.45-.54,20-2.72,4.53-295.08,4.96-351.6,1.28.14,1.11.33,2.04.6,2.72,2,5,358,5,361,0s0-24,0-24Z"/><path class="cls-16" d="M191,686s-43,78-41,81,359,2,361,0-47-81-47-81H191Z"/><path class="cls-22" d="M156,764c-1.76-2.65,31.5-63.68,39.35-78h-4.35s-43,78-41,81,359,2,361,0c.19-.19-.09-1.09-.74-2.55-49.31,1.68-352.42,2.31-354.26-.45Z"/><path class="cls-16" d="M221,572c-6,3-45,59-43,61s300,2,303,0-33-55.19-40-59.09-214-4.91-220-1.91Z"/><ellipse class="cls-4" cx="331" cy="601" rx="95" ry="15"/><path class="cls-4" d="M236,601s61,14,95,14,95-13,95-13v-22s-57.66,14.85-95,15c-38.74.16-71.22-7.79-95-14"/><path class="cls-17" d="M129,66c-4.1,38.12-6.74,93.34,2,159,3.47,26.09,4.41,55.07,17.22,89.57,2.73,7.36,8.22,21.96,17.78,38.43,6.94,11.96,48.97,84.13,132,103,11.67,2.65,33.88,7.48,62,3,85.95-13.69,129.68-98.8,138-115,18.97-36.92,22.53-67.52,29-123,7.42-63.63,5.35-116.98,2-154-49.73-13.03-116.58-25.41-196-26-83.09-.62-152.84,11.87-204,25Z"/><path class="cls-13" d="M529,69c-19.92-5.22-42.58-10.33-67.7-14.62,3.17,36.86,4.9,88.9-2.3,150.62-6.47,55.48-10.03,86.08-29,123-8.32,16.2-52.05,101.31-138,115-11.97,1.91-22.85,2.12-32.32,1.54,11.64,5.62,24.4,10.29,38.32,13.46,11.67,2.65,33.88,7.48,62,3,85.95-13.69,129.68-98.8,138-115,18.97-36.92,22.53-67.52,29-123,7.42-63.63,5.35-116.98,2-154Z"/><path class="cls-18" d="M294,452c-.88,2.9-2.57,9.93,0,18,4.21,13.23,13,19,18,20s20,1,20,1c0,0,17,1,22-1s14.23-8.58,17-18c2.62-8.92,0-16.48-1-19-8.92,2.5-21.24,4.97-36,5-16.75.04-30.51-3.07-40-6Z"/><ellipse class="cls-7" cx="331" cy="580" rx="95" ry="15"/><path class="cls-18" d="M305,486c.32,9.62-.28,31.18-13,54-10.43,18.71-31,38-29,39s52,4,68,4,68-3,71-5-25.06-17.07-36-41c-9.95-21.76-8.95-41.41-8-50-17.67-.33-35.33-.67-53-1Z"/><ellipse class="cls-18" cx="333" cy="578.5" rx="70" ry="8.5"/><path class="cls-11" d="M481,754c-6,5-299,3-303,0s0-121,0-121h303s6,116,0,121Z"/><path class="cls-23" d="M481,633h-25.52c1.29,28.24,4.44,106.9-.48,111-4.97,4.14-206.88,3.48-278.31,1.43.28,4.98.7,8.12,1.31,8.57,4,3,297,5,303,0s0-121,0-121Z"/><rect class="cls-6" x="248" y="655" width="168" height="71" rx="3.91" ry="3.91"/><path class="cls-15" d="M412.09,655h-5.09v59.09c0,2.16-1.75,3.91-3.91,3.91h-155.09v4.09c0,2.16,1.75,3.91,3.91,3.91h160.18c2.16,0,3.91-1.75,3.91-3.91v-63.18c0-2.16-1.75-3.91-3.91-3.91Z"/><ellipse class="cls-8" cx="256" cy="171" rx="26" ry="33"/><circle class="cls-12" cx="262" cy="157" r="8"/><circle class="cls-12" cx="244.5" cy="163.5" r="5.5"/><path class="cls-10" d="M226,117c-1-1,5-11,13-13s18,7,16,7-7.74-2.02-14-1c-7.7,1.25-14,8-15,7Z"/><path class="cls-20" d="M303.79,254.97c-2.48,2.99,3.6,12.15,8,17,3.92,4.33,10.05,11.09,19,11,12.04-.12,19.06-12.55,21-16,1.43-2.54,5.31-9.42,3-12-2.79-3.12-10.71,4.39-24,5-15.23.7-24.28-8.28-27-5Z"/><path class="cls-10" d="M277,242c1-1,30.02,17.17,52,16,27.07-1.44,48.58-18.34,50-16,.94,1.54-11,11-18,14s-19.04,7.22-31.52,7.11-17.48-1.11-24.48-3.11-29-17-28-18Z"/><path class="cls-10" d="M303,254c-.68.29.56,7.01,4,13,1.99,3.46,8.87,15.45,22,16,14.47.61,22.59-13.27,23-14,3.59-6.37,3.92-13.68,3-14-.75-.26-2.25,4.15-7,11-4.3,6.2-6.45,9.3-10,11-6.21,2.98-14.04,1.25-19-2-3.24-2.12-5.49-5.41-10-12-3.92-5.72-5.48-9.22-6-9Z"/><ellipse class="cls-1" cx="225" cy="227.5" rx="26" ry="14.5"/><path class="cls-9" d="M260.46,393.93c-.73,1.64-34.74,56.08-60.9,115.49-27.67,62.85-47.66,131.27-51.54,148.7,0,0-1.94,8.72,1.84,13.95,4,5.52,11.78,7,13.82,7.38,10.1,1.91,13.65-2.72,23.04-1.64,8.99,1.04,8.17,5.57,18.43,9.03,15.42,5.19,22.79-3.21,39.63,2.46,7.7,2.59,6.27,4.39,13.82,6.56,12.37,3.57,18.29-.64,32.26,0,15.34.71,14.02,6.06,29.49,7.38,16.08,1.38,16.09-4.52,37.79-4.92,14.48-.27,19.9,2.26,32.26-.82,8.19-2.04,7.27-3.51,15.67-5.74,16.32-4.33,20.57,1.03,35.02-2.46,14.13-3.41,13.43-9.36,25.81-10.67,12.25-1.3,16.67,4.13,24.88,1.64,0,0,6.79-.96,12.19-9.1.4-.61,5.18-7.75.18-29.68-2.79-12.25-43.23-116.34-54.07-144.21-10.84-27.87-49.16-94.42-54.15-103.36h-135.48Z"/><path class="cls-14" d="M504.73,634.57c-2.8-12.25-43.36-116.34-54.23-144.21-10.87-27.87-49.31-94.42-54.32-103.36h-135.89c-.73,1.64-34.84,56.08-61.09,115.49-27.76,62.85-47.81,131.27-51.7,148.7,0,0-1.95,8.72,1.85,13.95,4.01,5.52,11.82,7,13.87,7.38,7.85,1.48,11.77-.96,17.51-1.63,4.68-21.74,11.98-52.11,23.16-87.8,21.96-70.12,49.09-129.6,51.77-128.82,2.25.65-14.22,43.22-32.36,114.05-11.66,45.52-19.08,83.48-23.64,109.34,1.37.77,3.02,1.53,5.15,2.25,13.29,4.46,20.62-1.1,33.14.83,2.41-17.43,6.04-41.71,11.24-70.57,5.7-31.66,14.54-75.74,16.64-75.48,1.72.21-2.85,29.89-5.55,74.66-2.01,33.37-2.13,60.91-1.87,79.58,0,0,.02,0,.02,0,12.41,3.57,18.34-.64,32.36,0,15.39.71,14.06,6.06,29.58,7.38,10.89.93,14.44-1.45,22.29-3.23.32-23.89.68-57.51.82-97.69.32-88.49-.67-136.98.92-137.02,1.44-.04,3.51,39.9,8.32,105.84,3.83,52.52,7.57,96.23,10.35,127.18,11.1.24,16.62,1.88,27.55-.83,3.88-.96,5.72-1.8,7.47-2.65.13-15.2.01-35.96-1-60.53-1.99-48.31-6.13-79.43-4.62-79.59,2.08-.22,11.49,58.28,14.79,78.77,3.62,22.49,6.51,41.79,8.64,56.59,9.27-.68,14.37,1.9,25.56-.79,2.78-.67,4.99-1.44,6.84-2.25-4.59-31.71-12.3-77.9-25.33-133.13-20.27-85.95-41.05-141.34-38.83-141.94,2.48-.68,31.77,67.59,55.47,150.97,13.21,46.5,21.48,86.4,26.7,115.81.33-.05.68-.09,1.03-.12,12.29-1.3,16.72,4.13,24.96,1.64,0,0,6.81-.96,12.23-9.1.41-.61,5.2-7.75.18-29.68Z"/><path class="cls-9" d="M145.01,309.56c-.93-3.66,44.5,10.97,69.54,30.16,25.03,19.2,32.45,50.27,32.45,50.27,0,0-25.03-32.91-41.72-44.79-16.69-11.88-59.34-31.99-60.26-35.65Z"/><path class="cls-2" d="M129,73c-4,1-13,1-17-5s-2-12,0-15,54-24,100-30,87-6,138-6,92,5,119,9,67,18,72,23,6,11,1,18-12,6-18,5-21-12-63-17-110-6-133-6-78,0-128,8-67,15-71,16Z"/><path class="cls-19" d="M542.11,50.22c.6,3.28-.32,6.88-3.11,10.78-5,7-12,6-18,5s-21-12-63-17-110-6-133-6-78,0-128,8-67,15-71,16c-3.71.93-11.69.98-16.03-3.78.32,1.55.96,3.17,2.03,4.78,4,6,13,6,17,5s21-8,71-16,105-8,128-8,91,1,133,6,57,16,63,17,13,2,18-5c4.6-6.44,4.11-12.03.11-16.78Z"/><ellipse class="cls-8" cx="403" cy="173" rx="26" ry="33"/><circle class="cls-12" cx="398" cy="161" r="8"/><circle class="cls-12" cx="414" cy="165" r="4"/><path class="cls-10" d="M426.95,116.93c1-1-5-11-13-13s-18,7-16,7,7.74-2.02,14-1c7.7,1.25,14,8,15,7Z"/><ellipse class="cls-1" cx="434" cy="227.5" rx="26" ry="14.5"/><path class="cls-2" d="M521.5,91.5c29.33-5.33,76-19,88-16s25.91,46.66,29,60c21.71,93.77-53.32,194.55-98,210-5.24,1.81-25.45,7.77-45,25-8.49,7.48-14.35,14.88-18,20l-8-4c7.73-8.26,17.14-20.15,25-36,4.69-9.45,7.84-18.32,10-26,7.03-3.2,17.79-8.71,29.5-17.5,46.82-35.15,58.94-85.43,68-123,8.5-35.26,5.26-49.7-2-59-1.31-1.67-8.64-11.07-21-13-13.06-2.04-23.37,5.58-28,9-10.57,7.81-15.16,17.99-17,23h-12c-.17-17.5-.33-35-.5-52.5Z"/><path class="cls-5" d="M554,122c4.48-3.31,14.28-10.51,26.73-9.14-1.19-.35-2.43-.65-3.73-.86-13.06-2.04-23.37,5.58-28,9-10.57,7.81-15.16,17.99-17,23h-7.01c0,.33,0,.67,0,1h12c1.84-5.01,6.43-15.19,17-23Z"/><path class="cls-5" d="M641.5,136.5c-3.09-13.34-17-57-29-60-.94-.24-2.12-.36-3.47-.4,11.62,6.05,24.51,46.62,27.47,59.4,21.71,93.77-53.32,194.55-98,210-5.24,1.81-25.45,7.77-45,25-7.9,6.96-13.52,13.85-17.2,18.9,1.4.7,2.8,1.4,4.2,2.1,3.65-5.12,9.51-12.52,18-20,19.55-17.23,39.76-23.19,45-25,44.68-15.45,119.71-116.23,98-210Z"/><path class="cls-9" d="M512.51,313.56c.92-3.66-44.3,10.97-69.21,30.16-24.92,19.2-32.3,50.27-32.3,50.27,0,0,24.92-32.91,41.53-44.79,16.61-11.88,59.06-31.99,59.99-35.65Z"/><path class="cls-2" d="M138,91.5c-29.33-5.33-76-19-88-16s-25.91,46.66-29,60C-.71,229.27,74.32,330.05,119,345.5c5.24,1.81,25.45,7.77,45,25,8.49,7.48,14.35,14.88,18,20l8-4c-7.73-8.26-17.14-20.15-25-36-4.69-9.45-7.84-18.32-10-26-7.03-3.2-17.79-8.71-29.5-17.5-46.82-35.15-58.94-85.43-68-123-8.5-35.26-5.26-49.7,2-59,1.31-1.67,8.64-11.07,21-13,13.06-2.04,23.37,5.58,28,9,10.57,7.81,15.16,17.99,17,23h12c.17-17.5.33-35,.5-52.5Z"/><path class="cls-5" d="M155,324.5s-11.79-7.71-23.5-16.5c-46.82-35.15-58.94-85.43-68-123-8.5-35.26-5.26-49.7,2-59,1.31-1.67,8.64-11.07,21-13,2.16-.34,4.24-.39,6.24-.26-3.69-.99-7.8-1.43-12.24-.74-12.36,1.93-19.69,11.33-21,13-7.26,9.3-10.5,23.74-2,59,9.06,37.57,21.18,87.85,68,123,11.71,8.79,29.5,17.5,29.5,17.5Z"/><path class="cls-3" d="M211,87c-.2-2.92-31.76-12.64-47,5-13.14,15.21-4.84,39.96-3,40,1.39.03-1.42-14.04,7-26,13.33-18.95,43.2-16.13,43-19Z"/><path class="cls-21" d="M373,517c8.48,64.99,9.9,124.05,7.89,175.06,2.91-.14,6-.55,9.74-1.48,3.88-.96,5.72-1.8,7.47-2.65.13-15.2.01-35.96-1-60.53-1.99-48.31-6.13-79.43-4.62-79.59,2.08-.22,11.49,58.28,14.79,78.77,3.62,22.49,6.51,41.79,8.64,56.59,9.27-.68,14.37,1.9,25.56-.79,2.78-.67,4.99-1.44,6.84-2.25-4.59-31.71-12.3-77.9-25.33-133.13-20.27-85.95-41.05-141.34-38.83-141.94,2.48-.68,31.77,67.59,55.47,150.97,13.21,46.5,21.48,86.4,26.7,115.81.33-.04.68-.09,1.03-.12,12.29-1.3,16.72,4.13,24.96,1.64,0,0,6.81-.96,12.23-9.1.41-.61,5.2-7.75.18-29.68-2.8-12.25-43.36-116.34-54.23-144.21-10.87-27.87-49.31-94.42-54.32-103.36h-48.68c10.16,38.57,19.25,82.08,25.5,130Z"/><path class="cls-14" d="M188,387s60,92,141,86,142-82,142-82c0,0-96.41-18.87-134-20-52.94-1.59-149,16-149,16Z"/><path class="cls-9" d="M297,389c.24-1.16,10.36-2.43,17,3,5.08,4.16,5.63,10.21,8,10,2.34-.2,1.72-6.1,6-10,5.86-5.33,16.85-3.24,17-2,.1.83-4.71.52-10,4-9,5.92-8.99,15.97-13,16-3.48.02-3.57-7.55-11-14-6.83-5.93-14.21-6-14-7Z"/><path class="cls-21" d="M375.26,421.16c-2.15,16.69-5.58,31.7-9.46,44.84,23.48-9.74,39.32-17.59,63.76-34.8s41.44-42.44,41.44-42.44c0,0-48.29-9.16-93.63-15.76.58,14.54.14,30.72-2.11,48.16Z"/><path class="cls-9" d="M190.1,390.51c-1.1-.51.81-6.55,6-7.48,5.05-.91,7.13,4.25,12,3.18,4.27-.94,4.22-5.26,9-6.36,3.96-.91,4.91,1.85,9,1.06,4.97-.96,5.18-5.36,10-6.36,4.35-.91,5.15,2.47,10,2.12,6.37-.46,7.46-6.51,13-6.36,4.58.12,5.18,4.29,10,4.24,4.53-.05,5-3.75,10-4.24,5.31-.52,6.99,3.45,11,2.12,3.87-1.28,3.44-5.36,7-6.36,4.4-1.24,6.5,4.6,12,4.24,5.35-.35,6.91-6.12,11-5.3,3.62.73,3.44,5.46,7,6.36,5.11,1.29,8.8-7.62,13.99-6.36,3.51.85,3,5.2,7,6.36,4.34,1.26,6.7-3.34,12-2.12,3.25.75,2.93,2.61,6,3.18,5.15.95,7.34-4.08,12-3.18,3.46.67,2.93,3.57,7,5.3,5.52,2.35,8.44-2.17,13.99,0,4.59,1.79,3.99,5.41,8,6.36,5.47,1.3,8.72-4.95,13-3.18,3.5,1.45,2.65,6.19,6,7.42,4.54,1.67,8.89-6.03,13-4.24,2.88,1.25,1.69,5.46,5,7.42,3.79,2.24,8-3.67,12-3s2.04,7.63,5,9.36c4.54,2.66,8-4.43,9-3.06s-2.22,8.02-7,7.3c-4.05-.61-6.99-7.79-10-8.36s-5.08,3.68-9,2c-3.96-1.69-3.46-5.3-7-6.36-3.84-1.15-5.43,2.8-10,2.12-4.35-.65-4.46-4.47-9-5.3-4.29-.78-5.21,2.45-10,2.12-5.02-.34-5.18-3.99-11-5.3-5.66-1.28-7.14,1.8-12,0-4.61-1.71-4.46-4.93-8-5.3-4.65-.49-6.37,4.9-11,4.24-3.42-.49-3.39-3.57-7-4.24-4.74-.88-6.67,4.07-11,3.18-4.17-.85-4.18-5.81-8-6.36-4.38-.63-6.15,5.62-11,5.3-4.15-.28-4.64-4.99-9-5.3-4.34-.31-5.35,4.26-10,4.24-4.76-.02-6-4.83-10-4.24-3.88.57-3.83,5.27-8,6.36-4.49,1.18-6.38-3.79-12-3.18-4.42.48-4.5,3.7-9,4.24-5.5.67-7.01-3.95-12-3.18-4.96.77-5.04,5.58-10,6.36-5.24.82-7.06-4.26-12-3.18-4.38.96-4.22,5.24-9,6.36-4.38,1.03-5.85-2.27-10-1.06-4.26,1.25-3.88,5.07-8,6.36-4.26,1.33-5.92-2.37-12-2.12-6.01.25-6.89,2.69-8,2.18Z"/></svg>