<svg width="596" height="549" viewBox="0 0 596 549" fill="none" xmlns="http://www.w3.org/2000/svg">
<g clip-path="url(#clip0_234_965)">
<path d="M21.87 293.35C29.8174 293.35 36.26 286.907 36.26 278.96C36.26 271.013 29.8174 264.57 21.87 264.57C13.9226 264.57 7.47998 271.013 7.47998 278.96C7.47998 286.907 13.9226 293.35 21.87 293.35Z" fill="#F6CA45"/>
<path d="M577.57 293.35C585.517 293.35 591.96 286.907 591.96 278.96C591.96 271.013 585.517 264.57 577.57 264.57C569.623 264.57 563.18 271.013 563.18 278.96C563.18 286.907 569.623 293.35 577.57 293.35Z" fill="#F6CA45"/>
<path d="M471.96 30.25H122.93V535.66H471.96V30.25Z" fill="#653C1C"/>
<path d="M462.39 54.78H145.69V514.11H462.39V54.78Z" fill="#452913"/>
<path d="M439.05 127.13H148.2V133.74H439.05V127.13Z" fill="#636363"/>
<path d="M162.29 519.89L15.97 473.35V0.76001L162.29 47.3V519.89Z" fill="#8C5427"/>
<path d="M583.68 472.41L439.54 520.73V48.15L583.68 -0.179993V472.41Z" fill="#8C5427"/>
<path d="M199.2 127.12C199.2 127.12 198.72 117.82 212.63 121.53C226.54 125.24 220.16 157.03 217.01 157.43C213.11 157.92 221.07 130.86 212.08 127.49C203.09 124.12 207.77 127.61 199.2 127.12Z" fill="#949494"/>
<path d="M205.07 377.24C205.07 377.24 200.95 249.44 203.42 233.78C205.89 218.12 203.42 152.98 214.96 151.33C226.5 149.68 237.22 190.91 236.4 201.62C235.58 212.33 249.59 387.96 243 389.61C236.4 391.26 236.4 374.77 228.98 373.12C221.56 371.47 219.09 378.07 205.07 377.24Z" fill="#F6CA45"/>
<path d="M249.02 127.12C249.02 127.12 248.54 117.82 262.45 121.53C276.36 125.24 269.98 157.03 266.83 157.43C262.93 157.92 270.89 130.86 261.9 127.49C252.91 124.12 257.59 127.61 249.02 127.12Z" fill="#949494"/>
<path d="M254.9 468.16C254.9 468.16 259.81 324.36 262.28 302.39C264.75 280.42 253.25 153.66 264.79 151.35C276.33 149.04 295.11 216.08 294.28 231.11C293.45 246.14 305.67 472.72 290.49 470.19C283.6 469.04 274.99 493.27 267.57 490.96C260.15 488.65 252.95 480.74 254.89 468.16H254.9Z" fill="#838DDA"/>
<path d="M304.75 127.12C304.75 127.12 304.27 117.82 318.18 121.53C332.09 125.24 325.71 157.03 322.56 157.43C318.66 157.92 326.62 130.86 317.63 127.49C308.64 124.12 313.32 127.61 304.75 127.12Z" fill="#949494"/>
<path d="M310.62 377.24C306.96 366.02 306.5 249.44 308.97 233.78C311.44 218.12 308.97 152.98 320.51 151.33C332.05 149.68 342.77 190.91 341.95 201.62C341.13 212.33 346.16 330.16 346.31 336.96C346.82 360.78 342.07 437.96 334.65 436.31C327.23 434.66 314.28 388.46 310.62 377.24Z" fill="#2A3796"/>
<path d="M361 127.12C361 127.12 360.52 117.82 374.43 121.53C388.34 125.24 381.96 157.03 378.81 157.43C374.91 157.92 382.87 130.86 373.88 127.49C364.89 124.12 369.57 127.61 361 127.12Z" fill="#949494"/>
<path d="M366.88 349.24C366.88 349.24 362.76 237.28 365.23 223.56C367.7 209.84 365.23 152.77 376.77 151.33C388.31 149.89 399.03 186 398.21 195.39C397.39 204.78 409.27 349.87 402.68 351.32C396.08 352.76 389.36 347.58 381.94 346.13C374.52 344.69 380.9 349.96 366.88 349.24Z" fill="#8F3723"/>
</g>
<defs>
<clipPath id="clip0_234_965">
<rect width="595.28" height="548.03" fill="white"/>
</clipPath>
</defs>
</svg>
