<svg width="58" height="58" viewBox="0 0 58 58" fill="none" xmlns="http://www.w3.org/2000/svg">
<path d="M54.5378 51.0679L51.0679 54.5378C50.7631 54.8437 50.4008 55.0864 50.002 55.2521C49.6032 55.4177 49.1755 55.5029 48.7437 55.5029C48.3118 55.5029 47.8842 55.4177 47.4854 55.2521C47.0865 55.0864 46.7243 54.8437 46.4195 54.5378L30.9511 39.0695L25.6929 52.7851L25.6574 52.8753C25.3221 53.6561 24.7646 54.321 24.0543 54.7873C23.3439 55.2535 22.5121 55.5006 21.6624 55.4976H21.4492C20.5633 55.4605 19.7102 55.152 19.0055 54.6141C18.3007 54.0761 17.7783 53.3345 17.5089 52.4898L3.21635 8.71791C2.96567 7.95198 2.93212 7.13157 3.11942 6.34773C3.30672 5.56388 3.70754 4.84727 4.2774 4.2774C4.84727 3.70754 5.56388 3.30672 6.34773 3.11942C7.13157 2.93212 7.95198 2.96567 8.71791 3.21635L52.4898 17.5089C53.3264 17.7888 54.0588 18.315 54.591 19.0185C55.1232 19.722 55.4303 20.57 55.472 21.4512C55.5137 22.3323 55.288 23.2055 54.8246 23.9561C54.3612 24.7068 53.6817 25.2998 52.8753 25.6574L52.7851 25.6929L39.0695 30.9621L54.5378 46.4277C55.1531 47.043 55.4988 47.8776 55.4988 48.7478C55.4988 49.618 55.1531 50.4526 54.5378 51.0679Z" fill="#2F44C3" stroke="#FFEDAE" stroke-width="5"/>
</svg>
