<svg width="40" height="40" viewBox="0 0 40 40" fill="none" xmlns="http://www.w3.org/2000/svg">
<path d="M37.341 34.959L34.9616 37.3383C34.7526 37.548 34.5042 37.7144 34.2307 37.828C33.9572 37.9415 33.664 38 33.3678 38C33.0717 38 32.7784 37.9415 32.505 37.828C32.2315 37.7144 31.9831 37.548 31.774 37.3383L21.1669 26.732L17.5612 36.1365L17.5368 36.1983C17.3069 36.7337 16.9246 37.1896 16.4375 37.5093C15.9504 37.829 15.3801 37.9984 14.7974 37.9963H14.6511C14.0437 37.9709 13.4587 37.7594 12.9754 37.3905C12.4922 37.0216 12.1339 36.5132 11.9492 35.934L2.14836 5.92063C1.97646 5.39545 1.95345 4.83292 2.08189 4.29546C2.21033 3.75799 2.48518 3.26663 2.87595 2.87589C3.26673 2.48514 3.75813 2.21031 4.29564 2.08188C4.83314 1.95346 5.39572 1.97646 5.92094 2.14834L35.9366 11.9484C36.5103 12.1403 37.0125 12.5011 37.3775 12.9835C37.7424 13.4659 37.953 14.0473 37.9816 14.6515C38.0102 15.2557 37.8554 15.8544 37.5377 16.3691C37.2199 16.8838 36.754 17.2904 36.201 17.5356L36.1391 17.56L26.7339 21.1729L37.341 31.7773C37.763 32.1992 38 32.7715 38 33.3682C38 33.9648 37.763 34.5371 37.341 34.959Z" fill="#2F44C3" stroke="#FFEDAE" stroke-width="3"/>
</svg>
