<svg width="24" height="24" viewBox="0 0 24 24" fill="none" xmlns="http://www.w3.org/2000/svg">
<path fill-rule="evenodd" clip-rule="evenodd" d="M12.5931 23.2582L12.582 23.2602L12.511 23.2952L12.491 23.2992L12.477 23.2952L12.406 23.2602C12.3954 23.2568 12.3874 23.2585 12.382 23.2652L12.378 23.2752L12.361 23.7032L12.366 23.7232L12.376 23.7362L12.48 23.8102L12.495 23.8142L12.507 23.8102L12.611 23.7362L12.623 23.7202L12.627 23.7032L12.61 23.2762C12.6074 23.2655 12.6017 23.2595 12.5931 23.2582ZM12.858 23.1452L12.845 23.1472L12.66 23.2402L12.65 23.2502L12.647 23.2612L12.665 23.6912L12.67 23.7032L12.6781 23.7102L12.879 23.8032C12.8917 23.8065 12.9014 23.8038 12.908 23.7952L12.912 23.7812L12.878 23.1672C12.8747 23.1552 12.868 23.1478 12.858 23.1452ZM12.143 23.1472C12.1386 23.1445 12.1334 23.1436 12.1283 23.1448C12.1233 23.1459 12.1189 23.1489 12.116 23.1532L12.11 23.1672L12.076 23.7812C12.0767 23.7932 12.0824 23.8012 12.0931 23.8052L12.108 23.8032L12.309 23.7102L12.319 23.7022L12.323 23.6912L12.34 23.2612L12.337 23.2492L12.327 23.2392L12.143 23.1472Z" fill="#2D5C1E"/>
<path fill-rule="evenodd" clip-rule="evenodd" d="M21.546 5.11107C21.8272 5.39236 21.9852 5.77382 21.9852 6.17157C21.9852 6.56931 21.8272 6.95077 21.546 7.23207L10.303 18.4751C10.1544 18.6237 9.97805 18.7416 9.7839 18.822C9.58976 18.9024 9.38167 18.9438 9.17153 18.9438C8.96138 18.9438 8.75329 18.9024 8.55915 18.822C8.365 18.7416 8.1886 18.6237 8.04003 18.4751L2.45403 12.8901C2.31076 12.7517 2.19649 12.5862 2.11787 12.4032C2.03926 12.2202 1.99788 12.0233 1.99615 11.8242C1.99442 11.625 2.03237 11.4275 2.10779 11.2431C2.18322 11.0588 2.29459 10.8913 2.43543 10.7505C2.57627 10.6096 2.74375 10.4983 2.92809 10.4228C3.11244 10.3474 3.30996 10.3095 3.50913 10.3112C3.7083 10.3129 3.90513 10.3543 4.08813 10.4329C4.27114 10.5115 4.43666 10.6258 4.57503 10.7691L9.17103 15.3651L19.424 5.11107C19.5633 4.97168 19.7287 4.8611 19.9108 4.78566C20.0928 4.71022 20.288 4.67139 20.485 4.67139C20.6821 4.67139 20.8772 4.71022 21.0593 4.78566C21.2413 4.8611 21.4067 4.97168 21.546 5.11107Z" fill="#2D5C1E"/>
</svg>
