<svg width="102" height="102" viewBox="0 0 102 102" fill="none" xmlns="http://www.w3.org/2000/svg">
<path d="M80.1423 12.75H21.8578C19.4429 12.7523 17.1276 13.7125 15.4201 15.4201C13.7125 17.1276 12.7523 19.4429 12.75 21.8578V80.1423C12.75 85.17 16.8343 89.25 21.8578 89.25H80.1423C82.5571 89.2477 84.8724 88.2875 86.5799 86.5799C88.2875 84.8724 89.2477 82.5571 89.25 80.1423V21.8578C89.2477 19.4429 88.2875 17.1276 86.5799 15.4201C84.8724 13.7125 82.5571 12.7523 80.1423 12.75ZM72.8663 46.1252C70.1855 46.3855 67.4883 45.8363 65.1227 44.5485C63.1275 43.4728 61.4329 41.9154 60.1927 40.018V61.03C60.1927 64.1014 59.282 67.1039 57.5756 69.6577C55.8692 72.2115 53.4438 74.202 50.6061 75.3774C47.7685 76.5528 44.646 76.8603 41.6336 76.2611C38.6212 75.6619 35.8541 74.1828 33.6822 72.011C31.5104 69.8392 30.0314 67.0721 29.4321 64.0597C28.8329 61.0472 29.1405 57.9248 30.3159 55.0871C31.4913 52.2495 33.4817 49.8241 36.0355 48.1177C38.5893 46.4113 41.5918 45.5005 44.6632 45.5005C44.9862 45.5005 45.3008 45.5303 45.6195 45.5472V53.2015C45.3008 53.1632 44.9905 53.1037 44.6632 53.1037C42.5611 53.1037 40.545 53.9388 39.0585 55.4253C37.5721 56.9118 36.737 58.9278 36.737 61.03C36.737 63.1322 37.5721 65.1482 39.0585 66.6347C40.545 68.1212 42.5611 68.9563 44.6632 68.9563C49.0407 68.9563 52.9083 65.5095 52.9083 61.132L52.9847 25.4405H60.3075C60.6426 28.6213 62.0847 31.5833 64.3818 33.8089C66.6789 36.0345 69.6849 37.3823 72.8747 37.6167V46.1252" fill="#FFEDAE"/>
</svg>
