<svg width="102" height="102" viewBox="0 0 102 102" fill="none" xmlns="http://www.w3.org/2000/svg">
<path d="M51 37.1875C47.3367 37.1875 43.8234 38.6427 41.2331 41.2331C38.6427 43.8234 37.1875 47.3367 37.1875 51C37.1875 54.6633 38.6427 58.1766 41.2331 60.7669C43.8234 63.3573 47.3367 64.8125 51 64.8125C54.6633 64.8125 58.1766 63.3573 60.7669 60.7669C63.3573 58.1766 64.8125 54.6633 64.8125 51C64.8125 47.3367 63.3573 43.8234 60.7669 41.2331C58.1766 38.6427 54.6633 37.1875 51 37.1875Z" fill="#FFEDAE"/>
<path fill-rule="evenodd" clip-rule="evenodd" d="M28.7722 13.0985C43.5453 11.462 58.454 11.462 73.2271 13.0985C81.2979 13.9995 87.8046 20.3533 88.7524 28.4538C90.5031 43.4336 90.5031 58.5664 88.7524 73.5463C87.8046 81.6468 81.2979 88.0005 73.2314 88.9058C58.4569 90.5426 43.5467 90.5426 28.7722 88.9058C20.7014 88.0005 14.1947 81.6468 13.2469 73.5505C11.4958 58.5693 11.4958 43.435 13.2469 28.4538C14.1947 20.3533 20.7014 13.9995 28.7722 13.0985ZM72.2496 25.5C71.1225 25.5 70.0415 25.9478 69.2444 26.7448C68.4474 27.5418 67.9996 28.6228 67.9996 29.75C67.9996 30.8772 68.4474 31.9582 69.2444 32.7552C70.0415 33.5522 71.1225 34 72.2496 34C73.3768 34 74.4578 33.5522 75.2549 32.7552C76.0519 31.9582 76.4996 30.8772 76.4996 29.75C76.4996 28.6228 76.0519 27.5418 75.2549 26.7448C74.4578 25.9478 73.3768 25.5 72.2496 25.5ZM30.8122 51C30.8122 45.646 32.939 40.5112 36.7249 36.7253C40.5108 32.9394 45.6456 30.8125 50.9996 30.8125C56.3537 30.8125 61.4885 32.9394 65.2744 36.7253C69.0603 40.5112 71.1871 45.646 71.1871 51C71.1871 56.3541 69.0603 61.4888 65.2744 65.2747C61.4885 69.0606 56.3537 71.1875 50.9996 71.1875C45.6456 71.1875 40.5108 69.0606 36.7249 65.2747C32.939 61.4888 30.8122 56.3541 30.8122 51Z" fill="#FFEDAE"/>
</svg>
