<svg width="1259" height="400" viewBox="0 0 1259 400" fill="none" xmlns="http://www.w3.org/2000/svg">
<path d="M64.824 35.5C77.7693 35.5 89.1087 37.7873 98.842 42.362C108.673 46.8393 116.265 53.2147 121.618 61.488C127.069 69.664 129.794 79.2513 129.794 90.25C129.794 101.249 127.069 110.885 121.618 119.158C116.265 127.334 108.673 133.709 98.842 138.284C89.1087 142.761 77.7693 145 64.824 145H10.22V35.5H64.824ZM40.296 132.298L25.842 118.136H67.16C73.6813 118.136 79.3267 117.017 84.096 114.778C88.9627 112.442 92.71 109.181 95.338 104.996C97.966 100.811 99.28 95.8953 99.28 90.25C99.28 84.5073 97.966 79.592 95.338 75.504C92.71 71.3187 88.9627 68.1067 84.096 65.868C79.3267 63.532 73.6813 62.364 67.16 62.364H25.842L40.296 48.202V132.298ZM191.68 147.336C181.557 147.336 172.505 145.487 164.524 141.788C156.64 138.089 150.41 132.931 145.836 126.312C141.261 119.596 138.974 111.809 138.974 102.952C138.974 94.2893 141.164 86.6973 145.544 80.176C149.924 73.5573 155.91 68.3987 163.502 64.7C171.191 61.0013 179.854 59.152 189.49 59.152C199.515 59.152 208.032 61.342 215.04 65.722C222.145 70.0047 227.596 76.088 231.392 83.972C235.285 91.856 237.232 101.151 237.232 111.858H163.064V93.9H220.442L210.66 100.178C210.27 95.8953 209.2 92.294 207.448 89.374C205.696 86.3567 203.36 84.0693 200.44 82.512C197.617 80.9547 194.21 80.176 190.22 80.176C185.84 80.176 182.092 81.052 178.978 82.804C175.863 84.556 173.43 86.9893 171.678 90.104C169.926 93.1213 169.05 96.674 169.05 100.762C169.05 106.018 170.218 110.495 172.554 114.194C174.987 117.795 178.491 120.569 183.066 122.516C187.738 124.463 193.432 125.436 200.148 125.436C206.28 125.436 212.363 124.657 218.398 123.1C224.53 121.445 230.078 119.158 235.042 116.238V135.218C229.299 139.111 222.729 142.129 215.332 144.27C208.032 146.314 200.148 147.336 191.68 147.336ZM240.978 83.68V70.686L257.914 63.824L270.762 39.15H287.698V61.634H322.738V83.68H287.698V108.208C287.698 114.243 288.914 118.477 291.348 120.91C293.781 123.343 298.21 124.56 304.634 124.56C308.722 124.56 312.323 124.219 315.438 123.538C318.65 122.759 321.57 121.786 324.198 120.618V143.102C321.278 144.173 317.433 145.146 312.664 146.022C307.894 146.898 302.979 147.336 297.918 147.336C288.671 147.336 281.079 145.925 275.142 143.102C269.302 140.279 264.97 136.24 262.148 130.984C259.325 125.631 257.914 119.401 257.914 112.296V83.68H240.978ZM374.507 145V35.5H404.583V120.91L396.553 114.632L458.603 35.5H490.577L401.809 145H374.507ZM426.775 92.732L448.967 74.336L492.037 145H457.727L426.775 92.732ZM541.869 147.336C531.162 147.336 521.818 145.535 513.837 141.934C505.855 138.235 499.626 133.077 495.149 126.458C490.671 119.742 488.433 112.053 488.433 103.39C488.433 94.5327 490.671 86.7947 495.149 80.176C499.626 73.5573 505.855 68.3987 513.837 64.7C521.818 61.0013 531.162 59.152 541.869 59.152C552.478 59.152 561.773 61.0013 569.755 64.7C577.833 68.3987 584.111 73.5573 588.589 80.176C593.066 86.7947 595.305 94.5327 595.305 103.39C595.305 112.053 593.066 119.742 588.589 126.458C584.111 133.077 577.833 138.235 569.755 141.934C561.773 145.535 552.478 147.336 541.869 147.336ZM541.869 125.29C546.735 125.29 550.872 124.414 554.279 122.662C557.783 120.91 560.459 118.379 562.309 115.07C564.158 111.761 565.083 107.867 565.083 103.39C565.083 98.718 564.158 94.776 562.309 91.564C560.459 88.2547 557.783 85.724 554.279 83.972C550.872 82.22 546.735 81.344 541.869 81.344C537.002 81.344 532.817 82.22 529.313 83.972C525.809 85.724 523.132 88.2547 521.283 91.564C519.433 94.776 518.509 98.6693 518.509 103.244C518.509 107.819 519.433 111.761 521.283 115.07C523.132 118.379 525.809 120.91 529.313 122.662C532.817 124.414 537.002 125.29 541.869 125.29ZM607.86 32.58H637.79V145H607.86V32.58ZM654.197 32.58H684.127V145H654.197V32.58ZM749.445 147.336C739.323 147.336 730.271 145.487 722.289 141.788C714.405 138.089 708.176 132.931 703.601 126.312C699.027 119.596 696.739 111.809 696.739 102.952C696.739 94.2893 698.929 86.6973 703.309 80.176C707.689 73.5573 713.675 68.3987 721.267 64.7C728.957 61.0013 737.619 59.152 747.255 59.152C757.281 59.152 765.797 61.342 772.805 65.722C779.911 70.0047 785.361 76.088 789.157 83.972C793.051 91.856 794.997 101.151 794.997 111.858H720.829V93.9H778.207L768.425 100.178C768.036 95.8953 766.965 92.294 765.213 89.374C763.461 86.3567 761.125 84.0693 758.205 82.512C755.383 80.9547 751.976 80.176 747.985 80.176C743.605 80.176 739.858 81.052 736.743 82.804C733.629 84.556 731.195 86.9893 729.443 90.104C727.691 93.1213 726.815 96.674 726.815 100.762C726.815 106.018 727.983 110.495 730.319 114.194C732.753 117.795 736.257 120.569 740.831 122.516C745.503 124.463 751.197 125.436 757.913 125.436C764.045 125.436 770.129 124.657 776.163 123.1C782.295 121.445 787.843 119.158 792.807 116.238V135.218C787.065 139.111 780.495 142.129 773.097 144.27C765.797 146.314 757.913 147.336 749.445 147.336ZM837.684 121.202L829.508 118.428L875.644 61.634H907.034L834.472 145H807.754V32.58H837.684V121.202ZM851.846 104.266L874.33 88.498L909.224 145H875.644L851.846 104.266ZM906.532 83.68V70.686L923.468 63.824L936.316 39.15H953.252V61.634H988.292V83.68H953.252V108.208C953.252 114.243 954.469 118.477 956.902 120.91C959.336 123.343 963.764 124.56 970.188 124.56C974.276 124.56 977.878 124.219 980.992 123.538C984.204 122.759 987.124 121.786 989.752 120.618V143.102C986.832 144.173 982.988 145.146 978.218 146.022C973.449 146.898 968.534 147.336 963.472 147.336C954.226 147.336 946.634 145.925 940.696 143.102C934.856 140.279 930.525 136.24 927.702 130.984C924.88 125.631 923.468 119.401 923.468 112.296V83.68H906.532ZM1001.8 60.32L1016.84 63.24L1031.73 60.32V145H1001.8V60.32ZM1016.69 53.458C1011.54 53.458 1007.35 52.1927 1004.14 49.662C1000.93 47.034 999.321 43.4813 999.321 39.004C999.321 34.624 1000.93 31.12 1004.14 28.492C1007.35 25.864 1011.54 24.55 1016.69 24.55C1022.05 24.55 1026.28 25.864 1029.4 28.492C1032.61 31.12 1034.21 34.624 1034.21 39.004C1034.21 43.4813 1032.61 47.034 1029.4 49.662C1026.28 52.1927 1022.05 53.458 1016.69 53.458ZM1101.58 130.838L1091.36 130.692L1120.26 61.634H1152.09L1113.11 145H1079.09L1040.11 61.634H1073.11L1101.58 130.838ZM1204.27 147.336C1194.15 147.336 1185.09 145.487 1177.11 141.788C1169.23 138.089 1163 132.931 1158.43 126.312C1153.85 119.596 1151.56 111.809 1151.56 102.952C1151.56 94.2893 1153.75 86.6973 1158.13 80.176C1162.51 73.5573 1168.5 68.3987 1176.09 64.7C1183.78 61.0013 1192.44 59.152 1202.08 59.152C1212.1 59.152 1220.62 61.342 1227.63 65.722C1234.73 70.0047 1240.19 76.088 1243.98 83.972C1247.87 91.856 1249.82 101.151 1249.82 111.858H1175.65V93.9H1233.03L1223.25 100.178C1222.86 95.8953 1221.79 92.294 1220.04 89.374C1218.29 86.3567 1215.95 84.0693 1213.03 82.512C1210.21 80.9547 1206.8 80.176 1202.81 80.176C1198.43 80.176 1194.68 81.052 1191.57 82.804C1188.45 84.556 1186.02 86.9893 1184.27 90.104C1182.52 93.1213 1181.64 96.674 1181.64 100.762C1181.64 106.018 1182.81 110.495 1185.14 114.194C1187.58 117.795 1191.08 120.569 1195.66 122.516C1200.33 124.463 1206.02 125.436 1212.74 125.436C1218.87 125.436 1224.95 124.657 1230.99 123.1C1237.12 121.445 1242.67 119.158 1247.63 116.238V135.218C1241.89 139.111 1235.32 142.129 1227.92 144.27C1220.62 146.314 1212.74 147.336 1204.27 147.336Z" fill="#4A270E"/>
<path d="M12.39 357V224.25H48.852V327.795L39.117 320.184L114.342 224.25H153.105L45.489 357H12.39ZM75.756 293.634L102.66 271.332L154.875 357H113.28L75.756 293.634ZM163.923 220.71H200.208V357H163.923V220.71ZM380.462 359.832C368.072 359.832 357.334 357.531 348.248 352.929C339.28 348.327 332.318 342.014 327.362 333.99C322.524 325.966 320.105 316.821 320.105 306.555C320.105 295.699 322.288 286.318 326.654 278.412C331.138 270.388 337.451 264.134 345.593 259.65C353.735 255.166 363.293 252.924 374.267 252.924C385.949 252.924 395.861 255.52 404.003 260.712C412.145 265.786 418.222 272.984 422.234 282.306C426.364 291.628 428.252 302.484 427.898 314.874H340.283V295.935H407.366L397.808 303.192C397.336 297.764 396.038 293.103 393.914 289.209C391.908 285.315 389.017 282.365 385.241 280.359C381.583 278.235 377.099 277.173 371.789 277.173C366.715 277.173 362.231 278.235 358.337 280.359C354.561 282.483 351.611 285.492 349.487 289.386C347.363 293.28 346.301 297.941 346.301 303.369C346.301 309.505 347.717 314.815 350.549 319.299C353.381 323.783 357.688 327.264 363.47 329.742C369.252 332.102 376.509 333.282 385.241 333.282C392.439 333.282 399.401 332.515 406.126 330.981C412.971 329.329 419.284 326.91 425.066 323.724V345.672C420.936 348.504 416.629 351.041 412.145 353.283C407.779 355.407 403 357 397.808 358.062C392.616 359.242 386.834 359.832 380.462 359.832ZM308.954 357L306.122 320.538L311.078 306.555L306.122 292.572L308.954 255.933H335.15L337.982 305.67L335.15 357H308.954ZM319.928 306.555C318.276 317.175 314.972 326.497 310.016 334.521C305.178 342.545 298.983 348.799 291.431 353.283C283.997 357.649 275.501 359.832 265.943 359.832C256.031 359.832 247.299 357.649 239.747 353.283C232.313 348.799 226.472 342.545 222.224 334.521C217.976 326.379 215.852 317.057 215.852 306.555C215.852 295.817 217.976 286.436 222.224 278.412C226.472 270.388 232.313 264.134 239.747 259.65C247.299 255.166 256.031 252.924 265.943 252.924C275.501 252.924 283.997 255.166 291.431 259.65C298.983 264.016 305.237 270.211 310.192 278.235C315.149 286.141 318.394 295.581 319.928 306.555ZM252.491 306.555C252.491 311.511 253.494 315.936 255.5 319.83C257.624 323.724 260.515 326.792 264.173 329.034C267.831 331.158 272.02 332.22 276.74 332.22C281.696 332.22 286.357 331.158 290.723 329.034C295.089 326.792 298.924 323.724 302.228 319.83C305.532 315.936 308.01 311.511 309.662 306.555C308.01 301.481 305.532 296.997 302.228 293.103C298.924 289.209 295.089 286.141 290.723 283.899C286.357 281.657 281.696 280.536 276.74 280.536C272.02 280.536 267.831 281.657 264.173 283.899C260.515 286.141 257.624 289.209 255.5 293.103C253.494 296.997 252.491 301.481 252.491 306.555ZM535.637 357L530.858 319.122L537.053 306.732L531.035 291.156L539.531 220.71H577.055L566.612 303.723L572.984 357H535.637ZM543.425 306.555C541.773 317.175 538.469 326.497 533.513 334.521C528.675 342.545 522.48 348.799 514.928 353.283C507.494 357.649 498.998 359.832 489.44 359.832C479.528 359.832 470.796 357.649 463.244 353.283C455.81 348.799 449.969 342.545 445.721 334.521C441.473 326.379 439.349 317.057 439.349 306.555C439.349 295.817 441.473 286.436 445.721 278.412C449.969 270.388 455.81 264.134 463.244 259.65C470.796 255.166 479.528 252.924 489.44 252.924C498.998 252.924 507.494 255.166 514.928 259.65C522.48 264.016 528.734 270.211 533.69 278.235C538.646 286.141 541.891 295.581 543.425 306.555ZM475.988 306.555C475.988 311.511 476.991 315.936 478.997 319.83C481.121 323.724 484.012 326.792 487.67 329.034C491.328 331.158 495.517 332.22 500.237 332.22C505.193 332.22 509.854 331.158 514.22 329.034C518.586 326.792 522.421 323.724 525.725 319.83C529.029 315.936 531.507 311.511 533.159 306.555C531.507 301.481 529.029 296.997 525.725 293.103C522.421 289.209 518.586 286.141 514.22 283.899C509.854 281.657 505.193 280.536 500.237 280.536C495.517 280.536 491.328 281.657 487.67 283.899C484.012 286.141 481.121 289.209 478.997 293.103C476.991 296.997 475.988 301.481 475.988 306.555ZM648.778 359.832C636.506 359.832 625.532 357.59 615.856 353.106C606.298 348.622 598.746 342.368 593.2 334.344C587.654 326.202 584.881 316.762 584.881 306.024C584.881 295.522 587.536 286.318 592.846 278.412C598.156 270.388 605.413 264.134 614.617 259.65C623.939 255.166 634.441 252.924 646.123 252.924C658.277 252.924 668.602 255.579 677.098 260.889C685.712 266.081 692.32 273.456 696.922 283.014C701.642 292.572 704.002 303.841 704.002 316.821H614.086V295.05H683.647L671.788 302.661C671.316 297.469 670.018 293.103 667.894 289.563C665.77 285.905 662.938 283.132 659.398 281.244C655.976 279.356 651.846 278.412 647.008 278.412C641.698 278.412 637.155 279.474 633.379 281.598C629.603 283.722 626.653 286.672 624.529 290.448C622.405 294.106 621.343 298.413 621.343 303.369C621.343 309.741 622.759 315.169 625.591 319.653C628.541 324.019 632.789 327.382 638.335 329.742C643.999 332.102 650.902 333.282 659.044 333.282C666.478 333.282 673.853 332.338 681.169 330.45C688.603 328.444 695.329 325.671 701.347 322.131V345.141C694.385 349.861 686.42 353.519 677.452 356.115C668.602 358.593 659.044 359.832 648.778 359.832ZM836.642 324.078C836.642 331.866 834.282 338.415 829.562 343.725C824.842 349.035 818.116 353.047 809.384 355.761C800.652 358.475 790.15 359.832 777.878 359.832C765.252 359.832 754.16 358.298 744.602 355.23C735.162 352.162 727.787 347.855 722.477 342.309C717.167 336.763 714.335 330.332 713.981 323.016H750.62C751.446 325.73 753.039 328.09 755.399 330.096C757.877 331.984 761.122 333.459 765.134 334.521C769.146 335.465 773.925 335.937 779.471 335.937C786.669 335.937 792.097 335.229 795.755 333.813C799.531 332.397 801.419 330.273 801.419 327.441C801.419 325.199 800.003 323.547 797.171 322.485C794.339 321.305 789.501 320.42 782.657 319.83L764.78 318.414C752.862 317.588 743.363 315.818 736.283 313.104C729.321 310.272 724.306 306.673 721.238 302.307C718.17 297.823 716.636 292.749 716.636 287.085C716.636 279.415 718.996 273.102 723.716 268.146C728.554 263.072 735.221 259.296 743.717 256.818C752.331 254.222 762.361 252.924 773.807 252.924C785.135 252.924 795.224 254.399 804.074 257.349C812.924 260.299 820.004 264.429 825.314 269.739C830.624 274.931 833.692 281.067 834.518 288.147H797.879C797.289 285.905 795.991 283.899 793.985 282.129C791.979 280.241 789.206 278.707 785.666 277.527C782.126 276.347 777.583 275.757 772.037 275.757C765.547 275.757 760.591 276.465 757.169 277.881C753.865 279.297 752.213 281.303 752.213 283.899C752.213 285.905 753.216 287.498 755.222 288.678C757.346 289.858 761.24 290.684 766.904 291.156L790.445 292.926C802.127 293.634 811.331 295.345 818.057 298.059C824.783 300.655 829.562 304.136 832.394 308.502C835.226 312.868 836.642 318.06 836.642 324.078ZM888.157 328.149L878.245 324.786L934.177 255.933H972.232L884.263 357H851.872V220.71H888.157V328.149ZM905.326 307.617L932.584 288.501L974.887 357H934.177L905.326 307.617ZM1069.39 357L1064.78 320.538L1069.56 306.555L1064.78 292.572L1069.39 255.933H1106.91L1100.54 306.378L1106.91 357H1069.39ZM1077.88 306.555C1076.23 317.175 1072.93 326.497 1067.97 334.521C1063.13 342.545 1056.94 348.799 1049.38 353.283C1041.95 357.649 1033.45 359.832 1023.9 359.832C1013.98 359.832 1005.25 357.649 997.701 353.283C990.267 348.799 984.426 342.545 980.178 334.521C975.93 326.379 973.806 317.057 973.806 306.555C973.806 295.817 975.93 286.436 980.178 278.412C984.426 270.388 990.267 264.134 997.701 259.65C1005.25 255.166 1013.98 252.924 1023.9 252.924C1033.45 252.924 1041.95 255.166 1049.38 259.65C1056.94 264.016 1063.19 270.211 1068.15 278.235C1073.1 286.141 1076.35 295.581 1077.88 306.555ZM1010.44 306.555C1010.44 311.511 1011.45 315.936 1013.45 319.83C1015.58 323.724 1018.47 326.792 1022.13 329.034C1025.78 331.158 1029.97 332.22 1034.69 332.22C1039.65 332.22 1044.31 331.158 1048.68 329.034C1053.04 326.792 1056.88 323.724 1060.18 319.83C1063.49 315.936 1065.96 311.511 1067.62 306.555C1065.96 301.481 1063.49 296.997 1060.18 293.103C1056.88 289.209 1053.04 286.141 1048.68 283.899C1044.31 281.657 1039.65 280.536 1034.69 280.536C1029.97 280.536 1025.78 281.657 1022.13 283.899C1018.47 286.141 1015.58 289.209 1013.45 293.103C1011.45 296.997 1010.44 301.481 1010.44 306.555ZM1124.29 220.71H1160.57V285.315L1155.79 294.519V320.007L1160.57 328.857V357H1124.29V220.71ZM1148.89 306.555C1150.54 295.581 1153.79 286.141 1158.62 278.235C1163.46 270.211 1169.66 264.016 1177.21 259.65C1184.88 255.166 1193.43 252.924 1202.87 252.924C1212.79 252.924 1221.46 255.166 1228.89 259.65C1236.45 264.134 1242.29 270.388 1246.42 278.412C1250.66 286.436 1252.79 295.817 1252.79 306.555C1252.79 317.057 1250.66 326.379 1246.42 334.521C1242.29 342.545 1236.45 348.799 1228.89 353.283C1221.46 357.649 1212.79 359.832 1202.87 359.832C1193.32 359.832 1184.76 357.649 1177.21 353.283C1169.66 348.799 1163.46 342.545 1158.62 334.521C1153.79 326.497 1150.54 317.175 1148.89 306.555ZM1216.33 306.555C1216.33 301.481 1215.26 296.997 1213.14 293.103C1211.13 289.209 1208.3 286.141 1204.64 283.899C1200.99 281.657 1196.74 280.536 1191.9 280.536C1187.06 280.536 1182.46 281.657 1178.09 283.899C1173.73 286.141 1169.89 289.209 1166.59 293.103C1163.29 296.997 1160.75 301.481 1158.98 306.555C1160.75 311.511 1163.29 315.936 1166.59 319.83C1169.89 323.724 1173.73 326.792 1178.09 329.034C1182.46 331.158 1187.06 332.22 1191.9 332.22C1196.74 332.22 1200.99 331.158 1204.64 329.034C1208.3 326.792 1211.13 323.724 1213.14 319.83C1215.26 315.936 1216.33 311.511 1216.33 306.555Z" fill="#4A270E"/>
</svg>
