<svg width="29" height="54" viewBox="0 0 29 54" fill="none" xmlns="http://www.w3.org/2000/svg">
<path fill-rule="evenodd" clip-rule="evenodd" d="M0 0H23.3467C25.599 0 27.5672 1.52063 28.1357 3.69993C28.2003 3.94769 28.2456 4.20009 28.2712 4.45487L28.7502 9.22637C28.9158 10.8758 28.8304 12.5407 28.4971 14.1646L27.6417 18.3309C27.3393 19.8038 26.4793 21.1029 25.2415 21.9566C24.2686 22.6276 23.1146 22.9869 21.9327 22.9869H16.229C14.8745 22.9869 13.6233 23.711 12.9486 24.8855C12.6192 25.4589 12.4459 26.1086 12.4459 26.7699V27.3947C12.4459 28.1082 12.7162 28.7952 13.2024 29.3175C13.7362 29.8908 14.4842 30.2164 15.2676 30.2164H20.9584C22.7518 30.2164 24.4795 30.8915 25.7977 32.1075C26.6977 32.9377 27.3691 33.9855 27.7471 35.1502L28.3106 36.8859C28.7673 38.2931 29 39.7634 29 41.2429V44.3841C29 46.4859 28.5893 48.5675 27.791 50.5118L27.3149 51.6712C27.2189 51.9051 27.0995 52.1287 26.9585 52.3386C26.261 53.3771 25.0922 54 23.8413 54H0V0Z" fill="#F25D3F"/>
</svg>
