<svg width="53" height="53" viewBox="0 0 53 53" fill="none" xmlns="http://www.w3.org/2000/svg">
<path d="M21.2948 49.2416L21.271 49.3021C21.051 49.8044 20.6898 50.2322 20.2311 50.5333C19.7668 50.8381 19.2231 50.9995 18.6677 50.9976H18.6624H18.4839C17.9153 50.9681 17.3686 50.7675 16.9156 50.4217C16.4553 50.0703 16.114 49.5859 15.938 49.0341L15.9381 49.0341L15.9348 49.0242L1.64226 5.25231L1.64194 5.25134C1.47748 4.74884 1.45547 4.21059 1.57835 3.69634C1.70123 3.18208 1.96419 2.71193 2.33806 2.33806C2.71193 1.96419 3.18208 1.70123 3.69634 1.57835C4.21059 1.45547 4.74884 1.47748 5.25134 1.64194L5.25231 1.64226L49.0139 15.9314C49.0155 15.932 49.017 15.9325 49.0185 15.933C49.5664 16.1173 50.046 16.4624 50.3947 16.9235C50.7444 17.3858 50.9462 17.943 50.9736 18.5221C51.001 19.1011 50.8528 19.6749 50.5482 20.1682C50.2487 20.6534 49.8117 21.0384 49.2931 21.2745L49.2472 21.2927L49.2353 21.2973L35.5315 26.5618L33.3758 27.39L35.0089 29.0228L50.4771 44.4883C50.4772 44.4883 50.4772 44.4884 50.4773 44.4884C50.8112 44.8225 50.9988 45.2755 50.9988 45.7478C50.9988 46.2202 50.8112 46.6732 50.4772 47.0073C50.4772 47.0073 50.4771 47.0073 50.4771 47.0073L47.0072 50.4772L47.0054 50.479C46.8399 50.6451 46.6433 50.7768 46.4268 50.8667C46.2103 50.9566 45.9781 51.0029 45.7437 51.0029C45.5093 51.0029 45.2771 50.9566 45.0606 50.8667C44.8441 50.7768 44.6475 50.6451 44.482 50.479L44.4801 50.4772L29.0118 35.0088L27.3777 33.3748L26.5505 35.5325L21.2948 49.2416Z" fill="#FFEDAE" stroke="#2F44C3" stroke-width="3"/>
</svg>
