<svg width="29" height="54" viewBox="0 0 29 54" fill="none" xmlns="http://www.w3.org/2000/svg">
<path fill-rule="evenodd" clip-rule="evenodd" d="M29 0H5.65325C3.40103 0 1.43282 1.52063 0.86431 3.69993C0.799676 3.94769 0.754367 4.20009 0.728792 4.45487L0.2498 9.22637C0.084223 10.8758 0.169572 12.5407 0.502939 14.1646L1.35828 18.3309C1.66067 19.8038 2.52065 21.1029 3.75849 21.9566C4.73143 22.6276 5.88538 22.9869 7.06727 22.9869H12.771C14.1255 22.9869 15.3767 23.711 16.0514 24.8855C16.3808 25.4589 16.5541 26.1086 16.5541 26.7699V27.3947C16.5541 28.1082 16.2838 28.7952 15.7976 29.3175C15.2638 29.8908 14.5158 30.2164 13.7324 30.2164H8.04161C6.24821 30.2164 4.52054 30.8915 3.20231 32.1075C2.30226 32.9377 1.63093 33.9855 1.25288 35.1502L0.68944 36.8859C0.232655 38.2931 0 39.7634 0 41.2429V44.3841C0 46.4859 0.410703 48.5675 1.20902 50.5118L1.68508 51.6712C1.78112 51.9051 1.90054 52.1287 2.04151 52.3386C2.73898 53.3771 3.90778 54 5.15873 54H29V0Z" fill="#FFEDAE"/>
</svg>
